<?xml version="1.0" encoding="UTF-8" standalone="no"?>
<!DOCTYPE svg PUBLIC "-//W3C//DTD SVG 1.1//EN"
 "http://www.w3.org/Graphics/SVG/1.1/DTD/svg11.dtd">
<!-- Generated by graphviz version 14.1.2 (0)
 -->
<!-- Title: libscan Pages: 1 -->
<svg width="5634pt" height="116pt"
 viewBox="0.00 0.00 5634.00 116.00" xmlns="http://www.w3.org/2000/svg" xmlns:xlink="http://www.w3.org/1999/xlink">
<g id="graph0" class="graph" transform="scale(1 1) rotate(0) translate(4 112)">
<title>libscan</title>
<polygon fill="white" stroke="none" points="-4,4 -4,-112 5630.33,-112 5630.33,4 -4,4"/>
<!-- math -->
<g id="node1" class="node">
<title>math</title>
<polygon fill="lightblue" stroke="black" points="2811.32,-108 2808.32,-112 2787.32,-112 2784.32,-108 2757.32,-108 2757.32,-72 2811.32,-72 2811.32,-108"/>
<text xml:space="preserve" text-anchor="middle" x="2784.32" y="-85.33" font-family="Times,serif" font-size="14.00">math</text>
</g>
<!-- math.acos -->
<g id="node2" class="node">
<title>math.acos</title>
<ellipse fill="lightgreen" stroke="black" cx="33.32" cy="-18" rx="33.32" ry="18"/>
<text xml:space="preserve" text-anchor="middle" x="33.32" y="-13.32" font-family="Times,serif" font-size="14.00">acos</text>
</g>
<!-- math&#45;&gt;math.acos -->
<g id="edge1" class="edge">
<title>math&#45;&gt;math.acos</title>
<path fill="none" stroke="black" d="M2757.14,-89.07C2490.84,-89.66 351.82,-92.65 75.32,-36 73.03,-35.53 70.71,-34.94 68.39,-34.27"/>
<polygon fill="black" stroke="black" points="69.75,-31.03 59.16,-31.11 67.49,-37.66 69.75,-31.03"/>
</g>
<!-- math.acosh -->
<g id="node3" class="node">
<title>math.acosh</title>
<ellipse fill="lightgreen" stroke="black" cx="124.32" cy="-18" rx="39.63" ry="18"/>
<text xml:space="preserve" text-anchor="middle" x="124.32" y="-13.32" font-family="Times,serif" font-size="14.00">acosh</text>
</g>
<!-- math&#45;&gt;math.acosh -->
<g id="edge2" class="edge">
<title>math&#45;&gt;math.acosh</title>
<path fill="none" stroke="black" d="M2756.91,-88.98C2495.05,-88.67 439.63,-84.73 172.32,-36 169.54,-35.49 166.71,-34.85 163.88,-34.11"/>
<polygon fill="black" stroke="black" points="165.14,-30.83 154.55,-31.3 163.12,-37.53 165.14,-30.83"/>
</g>
<!-- math.asin -->
<g id="node4" class="node">
<title>math.asin</title>
<ellipse fill="lightgreen" stroke="black" cx="213.32" cy="-18" rx="31.74" ry="18"/>
<text xml:space="preserve" text-anchor="middle" x="213.32" y="-13.32" font-family="Times,serif" font-size="14.00">asin</text>
</g>
<!-- math&#45;&gt;math.asin -->
<g id="edge3" class="edge">
<title>math&#45;&gt;math.asin</title>
<path fill="none" stroke="black" d="M2756.95,-89.04C2499.81,-89.36 511.62,-90.04 254.32,-36 252.02,-35.52 249.69,-34.91 247.37,-34.21"/>
<polygon fill="black" stroke="black" points="248.71,-30.97 238.12,-30.94 246.38,-37.57 248.71,-30.97"/>
</g>
<!-- math.asinh -->
<g id="node5" class="node">
<title>math.asinh</title>
<ellipse fill="lightgreen" stroke="black" cx="301.32" cy="-18" rx="38.06" ry="18"/>
<text xml:space="preserve" text-anchor="middle" x="301.32" y="-13.32" font-family="Times,serif" font-size="14.00">asinh</text>
</g>
<!-- math&#45;&gt;math.asinh -->
<g id="edge4" class="edge">
<title>math&#45;&gt;math.asinh</title>
<path fill="none" stroke="black" d="M2757.2,-88.94C2506.53,-88.36 596.92,-82.37 348.32,-36 345.52,-35.48 342.67,-34.81 339.82,-34.04"/>
<polygon fill="black" stroke="black" points="341.02,-30.75 330.43,-31.14 338.95,-37.44 341.02,-30.75"/>
</g>
<!-- math.atan -->
<g id="node6" class="node">
<title>math.atan</title>
<ellipse fill="lightgreen" stroke="black" cx="390.32" cy="-18" rx="33.32" ry="18"/>
<text xml:space="preserve" text-anchor="middle" x="390.32" y="-13.32" font-family="Times,serif" font-size="14.00">atan</text>
</g>
<!-- math&#45;&gt;math.atan -->
<g id="edge5" class="edge">
<title>math&#45;&gt;math.atan</title>
<path fill="none" stroke="black" d="M2756.97,-88.98C2510.21,-88.74 671.07,-85.28 432.32,-36 430.03,-35.53 427.71,-34.94 425.39,-34.26"/>
<polygon fill="black" stroke="black" points="426.76,-31.03 416.16,-31.09 424.48,-37.65 426.76,-31.03"/>
</g>
<!-- math.atan2 -->
<g id="node7" class="node">
<title>math.atan2</title>
<ellipse fill="lightgreen" stroke="black" cx="481.32" cy="-18" rx="39.63" ry="18"/>
<text xml:space="preserve" text-anchor="middle" x="481.32" y="-13.32" font-family="Times,serif" font-size="14.00">atan2</text>
</g>
<!-- math&#45;&gt;math.atan2 -->
<g id="edge6" class="edge">
<title>math&#45;&gt;math.atan2</title>
<path fill="none" stroke="black" d="M2756.99,-88.88C2516.11,-87.77 758.84,-78.23 529.32,-36 526.54,-35.49 523.71,-34.84 520.88,-34.1"/>
<polygon fill="black" stroke="black" points="522.14,-30.82 511.56,-31.29 520.12,-37.52 522.14,-30.82"/>
</g>
<!-- math.atanh -->
<g id="node8" class="node">
<title>math.atanh</title>
<ellipse fill="lightgreen" stroke="black" cx="578.32" cy="-18" rx="39.63" ry="18"/>
<text xml:space="preserve" text-anchor="middle" x="578.32" y="-13.32" font-family="Times,serif" font-size="14.00">atanh</text>
</g>
<!-- math&#45;&gt;math.atanh -->
<g id="edge7" class="edge">
<title>math&#45;&gt;math.atanh</title>
<path fill="none" stroke="black" d="M2757.07,-88.85C2522.36,-87.5 845.6,-76.46 626.32,-36 623.54,-35.49 620.71,-34.84 617.88,-34.09"/>
<polygon fill="black" stroke="black" points="619.14,-30.82 608.56,-31.28 617.12,-37.52 619.14,-30.82"/>
</g>
<!-- math.cbrt -->
<g id="node9" class="node">
<title>math.cbrt</title>
<ellipse fill="lightgreen" stroke="black" cx="667.32" cy="-18" rx="31.74" ry="18"/>
<text xml:space="preserve" text-anchor="middle" x="667.32" y="-13.32" font-family="Times,serif" font-size="14.00">cbrt</text>
</g>
<!-- math&#45;&gt;math.cbrt -->
<g id="edge8" class="edge">
<title>math&#45;&gt;math.cbrt</title>
<path fill="none" stroke="black" d="M2756.99,-88.92C2526.92,-88.19 916.73,-81.44 707.32,-36 705.31,-35.56 703.27,-35.03 701.23,-34.41"/>
<polygon fill="black" stroke="black" points="702.55,-31.17 691.95,-31.1 700.19,-37.76 702.55,-31.17"/>
</g>
<!-- math.ceil -->
<g id="node10" class="node">
<title>math.ceil</title>
<ellipse fill="lightgreen" stroke="black" cx="745.32" cy="-18" rx="28.59" ry="18"/>
<text xml:space="preserve" text-anchor="middle" x="745.32" y="-13.32" font-family="Times,serif" font-size="14.00">ceil</text>
</g>
<!-- math&#45;&gt;math.ceil -->
<g id="edge9" class="edge">
<title>math&#45;&gt;math.ceil</title>
<path fill="none" stroke="black" d="M2756.92,-88.92C2531.38,-88.21 984.31,-81.7 783.32,-36 781.29,-35.54 779.24,-34.97 777.2,-34.32"/>
<polygon fill="black" stroke="black" points="778.52,-31.07 767.93,-30.78 776.02,-37.61 778.52,-31.07"/>
</g>
<!-- math.comb -->
<g id="node11" class="node">
<title>math.comb</title>
<ellipse fill="lightgreen" stroke="black" cx="830.32" cy="-18" rx="38.06" ry="18"/>
<text xml:space="preserve" text-anchor="middle" x="830.32" y="-13.32" font-family="Times,serif" font-size="14.00">comb</text>
</g>
<!-- math&#45;&gt;math.comb -->
<g id="edge10" class="edge">
<title>math&#45;&gt;math.comb</title>
<path fill="none" stroke="black" d="M2756.86,-88.77C2537.27,-86.82 1069.92,-72.53 877.32,-36 874.66,-35.5 871.95,-34.86 869.24,-34.14"/>
<polygon fill="black" stroke="black" points="870.28,-30.79 859.69,-31.19 868.21,-37.48 870.28,-30.79"/>
</g>
<!-- math.copysign -->
<g id="node12" class="node">
<title>math.copysign</title>
<ellipse fill="lightgreen" stroke="black" cx="941.32" cy="-18" rx="55.42" ry="18"/>
<text xml:space="preserve" text-anchor="middle" x="941.32" y="-13.32" font-family="Times,serif" font-size="14.00">copysign</text>
</g>
<!-- math&#45;&gt;math.copysign -->
<g id="edge11" class="edge">
<title>math&#45;&gt;math.copysign</title>
<path fill="none" stroke="black" d="M2757,-89.05C2560.82,-89.25 1364.21,-88.3 1005.32,-36 1000.97,-35.37 996.48,-34.54 992.01,-33.6"/>
<polygon fill="black" stroke="black" points="992.98,-30.23 982.44,-31.39 991.4,-37.05 992.98,-30.23"/>
</g>
<!-- math.cos -->
<g id="node13" class="node">
<title>math.cos</title>
<ellipse fill="lightgreen" stroke="black" cx="1042.32" cy="-18" rx="27.53" ry="18"/>
<text xml:space="preserve" text-anchor="middle" x="1042.32" y="-13.32" font-family="Times,serif" font-size="14.00">cos</text>
</g>
<!-- math&#45;&gt;math.cos -->
<g id="edge12" class="edge">
<title>math&#45;&gt;math.cos</title>
<path fill="none" stroke="black" d="M2756.85,-88.82C2550.58,-87.4 1248.03,-76.83 1078.32,-36 1076.68,-35.61 1075.03,-35.13 1073.38,-34.6"/>
<polygon fill="black" stroke="black" points="1074.72,-31.37 1064.14,-30.95 1072.15,-37.88 1074.72,-31.37"/>
</g>
<!-- math.cosh -->
<g id="node14" class="node">
<title>math.cosh</title>
<ellipse fill="lightgreen" stroke="black" cx="1121.32" cy="-18" rx="33.85" ry="18"/>
<text xml:space="preserve" text-anchor="middle" x="1121.32" y="-13.32" font-family="Times,serif" font-size="14.00">cosh</text>
</g>
<!-- math&#45;&gt;math.cosh -->
<g id="edge13" class="edge">
<title>math&#45;&gt;math.cosh</title>
<path fill="none" stroke="black" d="M2756.99,-88.67C2557.31,-86.19 1326.28,-69.61 1164.32,-36 1161.99,-35.52 1159.62,-34.92 1157.25,-34.23"/>
<polygon fill="black" stroke="black" points="1158.37,-30.92 1147.78,-31.04 1156.13,-37.55 1158.37,-30.92"/>
</g>
<!-- math.degrees -->
<g id="node15" class="node">
<title>math.degrees</title>
<ellipse fill="lightgreen" stroke="black" cx="1224.32" cy="-18" rx="51.21" ry="18"/>
<text xml:space="preserve" text-anchor="middle" x="1224.32" y="-13.32" font-family="Times,serif" font-size="14.00">degrees</text>
</g>
<!-- math&#45;&gt;math.degrees -->
<g id="edge14" class="edge">
<title>math&#45;&gt;math.degrees</title>
<path fill="none" stroke="black" d="M2756.86,-88.93C2578.65,-88.35 1583.9,-83.03 1284.32,-36 1280.29,-35.37 1276.14,-34.55 1272,-33.62"/>
<polygon fill="black" stroke="black" points="1273.15,-30.3 1262.61,-31.3 1271.47,-37.1 1273.15,-30.3"/>
</g>
<!-- math.dist -->
<g id="node16" class="node">
<title>math.dist</title>
<ellipse fill="lightgreen" stroke="black" cx="1323.32" cy="-18" rx="30.16" ry="18"/>
<text xml:space="preserve" text-anchor="middle" x="1323.32" y="-13.32" font-family="Times,serif" font-size="14.00">dist</text>
</g>
<!-- math&#45;&gt;math.dist -->
<g id="edge15" class="edge">
<title>math&#45;&gt;math.dist</title>
<path fill="none" stroke="black" d="M2756.85,-88.59C2571.2,-85.75 1503,-68.07 1362.32,-36 1360.3,-35.54 1358.26,-34.98 1356.22,-34.34"/>
<polygon fill="black" stroke="black" points="1357.53,-31.09 1346.94,-30.9 1355.1,-37.66 1357.53,-31.09"/>
</g>
<!-- e -->
<g id="node17" class="node">
<title>e</title>
<polygon fill="gray" stroke="none" points="1425.32,-36 1371.32,-36 1371.32,0 1425.32,0 1425.32,-36"/>
<text xml:space="preserve" text-anchor="middle" x="1398.32" y="-13.32" font-family="Times,serif" font-size="14.00">e</text>
</g>
<!-- math&#45;&gt;e -->
<g id="edge16" class="edge">
<title>math&#45;&gt;e</title>
<path fill="none" stroke="black" d="M2757.09,-88.59C2581.69,-85.83 1613.04,-69.31 1436.15,-35.44"/>
<polygon fill="black" stroke="black" points="1437.01,-32.04 1426.5,-33.34 1435.53,-38.89 1437.01,-32.04"/>
</g>
<!-- math.erf -->
<g id="node18" class="node">
<title>math.erf</title>
<ellipse fill="lightgreen" stroke="black" cx="1470.32" cy="-18" rx="27" ry="18"/>
<text xml:space="preserve" text-anchor="middle" x="1470.32" y="-13.32" font-family="Times,serif" font-size="14.00">erf</text>
</g>
<!-- math&#45;&gt;math.erf -->
<g id="edge17" class="edge">
<title>math&#45;&gt;math.erf</title>
<path fill="none" stroke="black" d="M2756.88,-88.52C2582.44,-85.36 1631.59,-66.83 1506.32,-36 1504.68,-35.6 1503.03,-35.12 1501.39,-34.58"/>
<polygon fill="black" stroke="black" points="1502.73,-31.35 1492.15,-30.92 1500.15,-37.85 1502.73,-31.35"/>
</g>
<!-- math.erfc -->
<g id="node19" class="node">
<title>math.erfc</title>
<ellipse fill="lightgreen" stroke="black" cx="1546.32" cy="-18" rx="30.69" ry="18"/>
<text xml:space="preserve" text-anchor="middle" x="1546.32" y="-13.32" font-family="Times,serif" font-size="14.00">erfc</text>
</g>
<!-- math&#45;&gt;math.erfc -->
<g id="edge18" class="edge">
<title>math&#45;&gt;math.erfc</title>
<path fill="none" stroke="black" d="M2756.98,-89.11C2600.76,-89.54 1819.81,-88.96 1586.32,-36 1584.17,-35.51 1581.99,-34.91 1579.81,-34.24"/>
<polygon fill="black" stroke="black" points="1581.13,-30.99 1570.54,-30.86 1578.74,-37.57 1581.13,-30.99"/>
</g>
<!-- math.exp -->
<g id="node20" class="node">
<title>math.exp</title>
<ellipse fill="lightgreen" stroke="black" cx="1624.32" cy="-18" rx="29.11" ry="18"/>
<text xml:space="preserve" text-anchor="middle" x="1624.32" y="-13.32" font-family="Times,serif" font-size="14.00">exp</text>
</g>
<!-- math&#45;&gt;math.exp -->
<g id="edge19" class="edge">
<title>math&#45;&gt;math.exp</title>
<path fill="none" stroke="black" d="M2757.28,-89.05C2607.74,-89.1 1880.81,-86.73 1663.32,-36 1661.16,-35.5 1658.97,-34.88 1656.79,-34.18"/>
<polygon fill="black" stroke="black" points="1658.12,-30.94 1647.53,-30.69 1655.66,-37.49 1658.12,-30.94"/>
</g>
<!-- math.exp2 -->
<g id="node21" class="node">
<title>math.exp2</title>
<ellipse fill="lightgreen" stroke="black" cx="1707.32" cy="-18" rx="35.42" ry="18"/>
<text xml:space="preserve" text-anchor="middle" x="1707.32" y="-13.32" font-family="Times,serif" font-size="14.00">exp2</text>
</g>
<!-- math&#45;&gt;math.exp2 -->
<g id="edge20" class="edge">
<title>math&#45;&gt;math.exp2</title>
<path fill="none" stroke="black" d="M2757.14,-88.77C2614.51,-87.37 1951.54,-78.67 1751.32,-36 1749.01,-35.51 1746.65,-34.91 1744.3,-34.23"/>
<polygon fill="black" stroke="black" points="1745.46,-30.93 1734.87,-31.12 1743.26,-37.58 1745.46,-30.93"/>
</g>
<!-- math.expm1 -->
<g id="node22" class="node">
<title>math.expm1</title>
<ellipse fill="lightgreen" stroke="black" cx="1805.32" cy="-18" rx="44.89" ry="18"/>
<text xml:space="preserve" text-anchor="middle" x="1805.32" y="-13.32" font-family="Times,serif" font-size="14.00">expm1</text>
</g>
<!-- math&#45;&gt;math.expm1 -->
<g id="edge21" class="edge">
<title>math&#45;&gt;math.expm1</title>
<path fill="none" stroke="black" d="M2757,-88.35C2623.42,-85.02 2038.31,-68.78 1859.32,-36 1855.95,-35.38 1852.49,-34.62 1849.04,-33.76"/>
<polygon fill="black" stroke="black" points="1850.15,-30.43 1839.58,-31.15 1848.29,-37.18 1850.15,-30.43"/>
</g>
<!-- math.fabs -->
<g id="node23" class="node">
<title>math.fabs</title>
<ellipse fill="lightgreen" stroke="black" cx="1900.32" cy="-18" rx="32.27" ry="18"/>
<text xml:space="preserve" text-anchor="middle" x="1900.32" y="-13.32" font-family="Times,serif" font-size="14.00">fabs</text>
</g>
<!-- math&#45;&gt;math.fabs -->
<g id="edge22" class="edge">
<title>math&#45;&gt;math.fabs</title>
<path fill="none" stroke="black" d="M2756.88,-88.49C2630.26,-85.94 2101.85,-73.24 1941.32,-36 1939.18,-35.5 1937.01,-34.91 1934.84,-34.24"/>
<polygon fill="black" stroke="black" points="1936.18,-31 1925.59,-30.94 1933.83,-37.6 1936.18,-31"/>
</g>
<!-- math.factorial -->
<g id="node24" class="node">
<title>math.factorial</title>
<ellipse fill="lightgreen" stroke="black" cx="2003.32" cy="-18" rx="52.79" ry="18"/>
<text xml:space="preserve" text-anchor="middle" x="2003.32" y="-13.32" font-family="Times,serif" font-size="14.00">factorial</text>
</g>
<!-- math&#45;&gt;math.factorial -->
<g id="edge23" class="edge">
<title>math&#45;&gt;math.factorial</title>
<path fill="none" stroke="black" d="M2756.99,-88.89C2661.21,-88.09 2332.06,-81.95 2065.32,-36 2061.23,-35.3 2057.02,-34.44 2052.81,-33.48"/>
<polygon fill="black" stroke="black" points="2053.77,-30.12 2043.23,-31.14 2052.11,-36.92 2053.77,-30.12"/>
</g>
<!-- math.floor -->
<g id="node25" class="node">
<title>math.floor</title>
<ellipse fill="lightgreen" stroke="black" cx="2108.32" cy="-18" rx="33.85" ry="18"/>
<text xml:space="preserve" text-anchor="middle" x="2108.32" y="-13.32" font-family="Times,serif" font-size="14.00">floor</text>
</g>
<!-- math&#45;&gt;math.floor -->
<g id="edge24" class="edge">
<title>math&#45;&gt;math.floor</title>
<path fill="none" stroke="black" d="M2757.04,-89.54C2668.38,-90.69 2380.84,-89.74 2151.32,-36 2148.91,-35.43 2146.45,-34.76 2144,-34.01"/>
<polygon fill="black" stroke="black" points="2145.42,-30.79 2134.82,-30.83 2143.12,-37.41 2145.42,-30.79"/>
</g>
<!-- math.fma -->
<g id="node26" class="node">
<title>math.fma</title>
<ellipse fill="lightgreen" stroke="black" cx="2190.32" cy="-18" rx="30.16" ry="18"/>
<text xml:space="preserve" text-anchor="middle" x="2190.32" y="-13.32" font-family="Times,serif" font-size="14.00">fma</text>
</g>
<!-- math&#45;&gt;math.fma -->
<g id="edge25" class="edge">
<title>math&#45;&gt;math.fma</title>
<path fill="none" stroke="black" d="M2757.01,-89.31C2675.55,-89.63 2427.69,-86.11 2230.32,-36 2228.18,-35.46 2226.01,-34.82 2223.84,-34.11"/>
<polygon fill="black" stroke="black" points="2225.18,-30.87 2214.59,-30.66 2222.73,-37.43 2225.18,-30.87"/>
</g>
<!-- math.fmod -->
<g id="node27" class="node">
<title>math.fmod</title>
<ellipse fill="lightgreen" stroke="black" cx="2275.32" cy="-18" rx="36.48" ry="18"/>
<text xml:space="preserve" text-anchor="middle" x="2275.32" y="-13.32" font-family="Times,serif" font-size="14.00">fmod</text>
</g>
<!-- math&#45;&gt;math.fmod -->
<g id="edge26" class="edge">
<title>math&#45;&gt;math.fmod</title>
<path fill="none" stroke="black" d="M2756.98,-88.23C2684.67,-85.69 2482.85,-75.34 2320.32,-36 2317.88,-35.41 2315.39,-34.72 2312.9,-33.97"/>
<polygon fill="black" stroke="black" points="2314.14,-30.69 2303.54,-30.84 2311.91,-37.33 2314.14,-30.69"/>
</g>
<!-- math.frexp -->
<g id="node28" class="node">
<title>math.frexp</title>
<ellipse fill="lightgreen" stroke="black" cx="2367.32" cy="-18" rx="37.53" ry="18"/>
<text xml:space="preserve" text-anchor="middle" x="2367.32" y="-13.32" font-family="Times,serif" font-size="14.00">frexp</text>
</g>
<!-- math&#45;&gt;math.frexp -->
<g id="edge27" class="edge">
<title>math&#45;&gt;math.frexp</title>
<path fill="none" stroke="black" d="M2756.94,-87.09C2694.95,-82.32 2539.47,-67.94 2413.32,-36 2410.91,-35.39 2408.44,-34.7 2405.97,-33.95"/>
<polygon fill="black" stroke="black" points="2407.27,-30.69 2396.68,-30.87 2405.07,-37.33 2407.27,-30.69"/>
</g>
<!-- math.fsum -->
<g id="node29" class="node">
<title>math.fsum</title>
<ellipse fill="lightgreen" stroke="black" cx="2458.32" cy="-18" rx="35.95" ry="18"/>
<text xml:space="preserve" text-anchor="middle" x="2458.32" y="-13.32" font-family="Times,serif" font-size="14.00">fsum</text>
</g>
<!-- math&#45;&gt;math.fsum -->
<g id="edge28" class="edge">
<title>math&#45;&gt;math.fsum</title>
<path fill="none" stroke="black" d="M2756.83,-85.44C2706.1,-78.52 2594.61,-61.64 2503.32,-36 2501.06,-35.36 2498.75,-34.66 2496.43,-33.92"/>
<polygon fill="black" stroke="black" points="2497.7,-30.65 2487.1,-30.7 2495.41,-37.27 2497.7,-30.65"/>
</g>
<!-- math.gamma -->
<g id="node30" class="node">
<title>math.gamma</title>
<ellipse fill="lightgreen" stroke="black" cx="2560.32" cy="-18" rx="48.05" ry="18"/>
<text xml:space="preserve" text-anchor="middle" x="2560.32" y="-13.32" font-family="Times,serif" font-size="14.00">gamma</text>
</g>
<!-- math&#45;&gt;math.gamma -->
<g id="edge29" class="edge">
<title>math&#45;&gt;math.gamma</title>
<path fill="none" stroke="black" d="M2756.85,-80.42C2719.51,-68.75 2652.19,-47.71 2606.88,-33.55"/>
<polygon fill="black" stroke="black" points="2608.19,-30.29 2597.6,-30.65 2606.1,-36.97 2608.19,-30.29"/>
</g>
<!-- math.gcd -->
<g id="node31" class="node">
<title>math.gcd</title>
<ellipse fill="lightgreen" stroke="black" cx="2655.32" cy="-18" rx="29.11" ry="18"/>
<text xml:space="preserve" text-anchor="middle" x="2655.32" y="-13.32" font-family="Times,serif" font-size="14.00">gcd</text>
</g>
<!-- math&#45;&gt;math.gcd -->
<g id="edge30" class="edge">
<title>math&#45;&gt;math.gcd</title>
<path fill="none" stroke="black" d="M2756.96,-74.15C2736.37,-62.98 2708.11,-47.65 2686.62,-35.99"/>
<polygon fill="black" stroke="black" points="2688.47,-33 2678.01,-31.31 2685.13,-39.16 2688.47,-33"/>
</g>
<!-- math.hypot -->
<g id="node32" class="node">
<title>math.hypot</title>
<ellipse fill="lightgreen" stroke="black" cx="2742.32" cy="-18" rx="39.63" ry="18"/>
<text xml:space="preserve" text-anchor="middle" x="2742.32" y="-13.32" font-family="Times,serif" font-size="14.00">hypot</text>
</g>
<!-- math&#45;&gt;math.hypot -->
<g id="edge31" class="edge">
<title>math&#45;&gt;math.hypot</title>
<path fill="none" stroke="black" d="M2773.94,-71.7C2769.19,-63.78 2763.46,-54.23 2758.18,-45.44"/>
<polygon fill="black" stroke="black" points="2761.22,-43.69 2753.07,-36.92 2755.22,-47.3 2761.22,-43.69"/>
</g>
<!-- inf -->
<g id="node33" class="node">
<title>inf</title>
<polygon fill="gray" stroke="none" points="2854.32,-36 2800.32,-36 2800.32,0 2854.32,0 2854.32,-36"/>
<text xml:space="preserve" text-anchor="middle" x="2827.32" y="-13.32" font-family="Times,serif" font-size="14.00">inf</text>
</g>
<!-- math&#45;&gt;inf -->
<g id="edge32" class="edge">
<title>math&#45;&gt;inf</title>
<path fill="none" stroke="black" d="M2794.95,-71.7C2799.86,-63.7 2805.81,-54.02 2811.25,-45.15"/>
<polygon fill="black" stroke="black" points="2814.07,-47.26 2816.32,-36.91 2808.1,-43.6 2814.07,-47.26"/>
</g>
<!-- math.isclose -->
<g id="node34" class="node">
<title>math.isclose</title>
<ellipse fill="lightgreen" stroke="black" cx="2917.32" cy="-18" rx="44.89" ry="18"/>
<text xml:space="preserve" text-anchor="middle" x="2917.32" y="-13.32" font-family="Times,serif" font-size="14.00">isclose</text>
</g>
<!-- math&#45;&gt;math.isclose -->
<g id="edge33" class="edge">
<title>math&#45;&gt;math.isclose</title>
<path fill="none" stroke="black" d="M2811.56,-74.67C2831.63,-64.1 2859.15,-49.62 2881.08,-38.07"/>
<polygon fill="black" stroke="black" points="2882.47,-41.3 2889.69,-33.54 2879.21,-35.1 2882.47,-41.3"/>
</g>
<!-- math.isfinite -->
<g id="node35" class="node">
<title>math.isfinite</title>
<ellipse fill="lightgreen" stroke="black" cx="3025.32" cy="-18" rx="45.42" ry="18"/>
<text xml:space="preserve" text-anchor="middle" x="3025.32" y="-13.32" font-family="Times,serif" font-size="14.00">isfinite</text>
</g>
<!-- math&#45;&gt;math.isfinite -->
<g id="edge34" class="edge">
<title>math&#45;&gt;math.isfinite</title>
<path fill="none" stroke="black" d="M2811.64,-81.52C2848.13,-71.47 2914.74,-52.92 2971.32,-36 2974.18,-35.15 2977.12,-34.25 2980.08,-33.35"/>
<polygon fill="black" stroke="black" points="2980.83,-36.78 2989.35,-30.48 2978.76,-30.09 2980.83,-36.78"/>
</g>
<!-- math.isinf -->
<g id="node36" class="node">
<title>math.isinf</title>
<ellipse fill="lightgreen" stroke="black" cx="3121.32" cy="-18" rx="32.79" ry="18"/>
<text xml:space="preserve" text-anchor="middle" x="3121.32" y="-13.32" font-family="Times,serif" font-size="14.00">isinf</text>
</g>
<!-- math&#45;&gt;math.isinf -->
<g id="edge35" class="edge">
<title>math&#45;&gt;math.isinf</title>
<path fill="none" stroke="black" d="M2811.59,-86.01C2864.16,-79.84 2982.84,-63.87 3079.32,-36 3081.42,-35.39 3083.55,-34.72 3085.7,-34"/>
<polygon fill="black" stroke="black" points="3086.7,-37.36 3094.88,-30.63 3084.28,-30.79 3086.7,-37.36"/>
</g>
<!-- math.isnan -->
<g id="node37" class="node">
<title>math.isnan</title>
<ellipse fill="lightgreen" stroke="black" cx="3210.32" cy="-18" rx="38.06" ry="18"/>
<text xml:space="preserve" text-anchor="middle" x="3210.32" y="-13.32" font-family="Times,serif" font-size="14.00">isnan</text>
</g>
<!-- math&#45;&gt;math.isnan -->
<g id="edge36" class="edge">
<title>math&#45;&gt;math.isnan</title>
<path fill="none" stroke="black" d="M2811.81,-87.13C2874.78,-82.41 3034.02,-68.05 3163.32,-36 3165.88,-35.37 3168.49,-34.64 3171.11,-33.86"/>
<polygon fill="black" stroke="black" points="3171.91,-37.28 3180.34,-30.86 3169.75,-30.62 3171.91,-37.28"/>
</g>
<!-- math.isqrt -->
<g id="node38" class="node">
<title>math.isqrt</title>
<ellipse fill="lightgreen" stroke="black" cx="3301.32" cy="-18" rx="34.9" ry="18"/>
<text xml:space="preserve" text-anchor="middle" x="3301.32" y="-13.32" font-family="Times,serif" font-size="14.00">isqrt</text>
</g>
<!-- math&#45;&gt;math.isqrt -->
<g id="edge37" class="edge">
<title>math&#45;&gt;math.isqrt</title>
<path fill="none" stroke="black" d="M2811.68,-88.38C2884.96,-86.2 3091.38,-76.63 3257.32,-36 3259.62,-35.44 3261.96,-34.78 3264.3,-34.07"/>
<polygon fill="black" stroke="black" points="3265.38,-37.4 3273.72,-30.86 3263.12,-30.77 3265.38,-37.4"/>
</g>
<!-- math.lcm -->
<g id="node39" class="node">
<title>math.lcm</title>
<ellipse fill="lightgreen" stroke="black" cx="3383.32" cy="-18" rx="29.11" ry="18"/>
<text xml:space="preserve" text-anchor="middle" x="3383.32" y="-13.32" font-family="Times,serif" font-size="14.00">lcm</text>
</g>
<!-- math&#45;&gt;math.lcm -->
<g id="edge38" class="edge">
<title>math&#45;&gt;math.lcm</title>
<path fill="none" stroke="black" d="M2811.73,-89.53C2894.03,-90.48 3145.7,-88.55 3345.32,-36 3347.06,-35.54 3348.83,-35.01 3350.59,-34.43"/>
<polygon fill="black" stroke="black" points="3351.77,-37.72 3359.84,-30.86 3349.25,-31.19 3351.77,-37.72"/>
</g>
<!-- math.ldexp -->
<g id="node40" class="node">
<title>math.ldexp</title>
<ellipse fill="lightgreen" stroke="black" cx="3469.32" cy="-18" rx="38.58" ry="18"/>
<text xml:space="preserve" text-anchor="middle" x="3469.32" y="-13.32" font-family="Times,serif" font-size="14.00">ldexp</text>
</g>
<!-- math&#45;&gt;math.ldexp -->
<g id="edge39" class="edge">
<title>math&#45;&gt;math.ldexp</title>
<path fill="none" stroke="black" d="M2811.69,-89.22C2900.68,-89.4 3189.41,-85.84 3421.32,-36 3424.12,-35.4 3426.98,-34.68 3429.83,-33.88"/>
<polygon fill="black" stroke="black" points="3430.78,-37.25 3439.29,-30.93 3428.7,-30.56 3430.78,-37.25"/>
</g>
<!-- math.lgamma -->
<g id="node41" class="node">
<title>math.lgamma</title>
<ellipse fill="lightgreen" stroke="black" cx="3577.32" cy="-18" rx="51.21" ry="18"/>
<text xml:space="preserve" text-anchor="middle" x="3577.32" y="-13.32" font-family="Times,serif" font-size="14.00">lgamma</text>
</g>
<!-- math&#45;&gt;math.lgamma -->
<g id="edge40" class="edge">
<title>math&#45;&gt;math.lgamma</title>
<path fill="none" stroke="black" d="M2811.52,-89.02C2908.34,-88.69 3244.95,-83.91 3517.32,-36 3521.17,-35.32 3525.13,-34.5 3529.08,-33.58"/>
<polygon fill="black" stroke="black" points="3529.83,-37 3538.68,-31.17 3528.13,-30.21 3529.83,-37"/>
</g>
<!-- math.log -->
<g id="node42" class="node">
<title>math.log</title>
<ellipse fill="lightgreen" stroke="black" cx="3673.32" cy="-18" rx="27" ry="18"/>
<text xml:space="preserve" text-anchor="middle" x="3673.32" y="-13.32" font-family="Times,serif" font-size="14.00">log</text>
</g>
<!-- math&#45;&gt;math.log -->
<g id="edge41" class="edge">
<title>math&#45;&gt;math.log</title>
<path fill="none" stroke="black" d="M2811.7,-88.68C2939.24,-87.01 3475.65,-77.56 3637.32,-36 3638.95,-35.58 3640.6,-35.09 3642.24,-34.54"/>
<polygon fill="black" stroke="black" points="3643.49,-37.81 3651.48,-30.84 3640.89,-31.31 3643.49,-37.81"/>
</g>
<!-- math.log10 -->
<g id="node43" class="node">
<title>math.log10</title>
<ellipse fill="lightgreen" stroke="black" cx="3757.32" cy="-18" rx="39.11" ry="18"/>
<text xml:space="preserve" text-anchor="middle" x="3757.32" y="-13.32" font-family="Times,serif" font-size="14.00">log10</text>
</g>
<!-- math&#45;&gt;math.log10 -->
<g id="edge42" class="edge">
<title>math&#45;&gt;math.log10</title>
<path fill="none" stroke="black" d="M2811.67,-88.48C2945.36,-85.75 3530.94,-71.94 3709.32,-36 3712.09,-35.44 3714.91,-34.76 3717.74,-33.99"/>
<polygon fill="black" stroke="black" points="3718.52,-37.41 3727.06,-31.13 3716.47,-30.72 3718.52,-37.41"/>
</g>
<!-- math.log1p -->
<g id="node44" class="node">
<title>math.log1p</title>
<ellipse fill="lightgreen" stroke="black" cx="3853.32" cy="-18" rx="39.11" ry="18"/>
<text xml:space="preserve" text-anchor="middle" x="3853.32" y="-13.32" font-family="Times,serif" font-size="14.00">log1p</text>
</g>
<!-- math&#45;&gt;math.log1p -->
<g id="edge43" class="edge">
<title>math&#45;&gt;math.log1p</title>
<path fill="none" stroke="black" d="M2811.63,-88.65C2953.47,-86.64 3607.07,-75.39 3805.32,-36 3808.13,-35.44 3810.99,-34.75 3813.86,-33.98"/>
<polygon fill="black" stroke="black" points="3814.78,-37.35 3823.32,-31.07 3812.73,-30.66 3814.78,-37.35"/>
</g>
<!-- math.log2 -->
<g id="node45" class="node">
<title>math.log2</title>
<ellipse fill="lightgreen" stroke="black" cx="3943.32" cy="-18" rx="32.79" ry="18"/>
<text xml:space="preserve" text-anchor="middle" x="3943.32" y="-13.32" font-family="Times,serif" font-size="14.00">log2</text>
</g>
<!-- math&#45;&gt;math.log2 -->
<g id="edge44" class="edge">
<title>math&#45;&gt;math.log2</title>
<path fill="none" stroke="black" d="M2811.73,-88.95C2961.71,-88.46 3684.19,-83.64 3901.32,-36 3903.6,-35.5 3905.92,-34.89 3908.23,-34.19"/>
<polygon fill="black" stroke="black" points="3909.16,-37.58 3917.46,-30.99 3906.86,-30.96 3909.16,-37.58"/>
</g>
<!-- math.modf -->
<g id="node46" class="node">
<title>math.modf</title>
<ellipse fill="lightgreen" stroke="black" cx="4030.32" cy="-18" rx="36.48" ry="18"/>
<text xml:space="preserve" text-anchor="middle" x="4030.32" y="-13.32" font-family="Times,serif" font-size="14.00">modf</text>
</g>
<!-- math&#45;&gt;math.modf -->
<g id="edge45" class="edge">
<title>math&#45;&gt;math.modf</title>
<path fill="none" stroke="black" d="M2811.69,-88.97C2968.13,-88.59 3750.22,-84.31 3985.32,-36 3987.78,-35.49 3990.28,-34.87 3992.78,-34.17"/>
<polygon fill="black" stroke="black" points="3993.73,-37.54 4002.17,-31.14 3991.57,-30.88 3993.73,-37.54"/>
</g>
<!-- nan -->
<g id="node47" class="node">
<title>nan</title>
<polygon fill="gray" stroke="none" points="4138.32,-36 4084.32,-36 4084.32,0 4138.32,0 4138.32,-36"/>
<text xml:space="preserve" text-anchor="middle" x="4111.32" y="-13.32" font-family="Times,serif" font-size="14.00">nan</text>
</g>
<!-- math&#45;&gt;nan -->
<g id="edge46" class="edge">
<title>math&#45;&gt;nan</title>
<path fill="none" stroke="black" d="M2811.76,-88.53C2983.02,-85.51 3903.15,-68 4073.47,-35.44"/>
<polygon fill="black" stroke="black" points="4074.11,-38.88 4083.14,-33.34 4072.63,-32.04 4074.11,-38.88"/>
</g>
<!-- math.nextafter -->
<g id="node48" class="node">
<title>math.nextafter</title>
<ellipse fill="lightgreen" stroke="black" cx="4214.32" cy="-18" rx="57.52" ry="18"/>
<text xml:space="preserve" text-anchor="middle" x="4214.32" y="-13.32" font-family="Times,serif" font-size="14.00">nextafter</text>
</g>
<!-- math&#45;&gt;math.nextafter -->
<g id="edge47" class="edge">
<title>math&#45;&gt;math.nextafter</title>
<path fill="none" stroke="black" d="M2811.66,-88.72C2979.83,-86.87 3875.89,-75.27 4147.32,-36 4152.2,-35.29 4157.23,-34.38 4162.25,-33.34"/>
<polygon fill="black" stroke="black" points="4162.67,-36.83 4171.66,-31.22 4161.13,-30 4162.67,-36.83"/>
</g>
<!-- math.perm -->
<g id="node49" class="node">
<title>math.perm</title>
<ellipse fill="lightgreen" stroke="black" cx="4327.32" cy="-18" rx="37.53" ry="18"/>
<text xml:space="preserve" text-anchor="middle" x="4327.32" y="-13.32" font-family="Times,serif" font-size="14.00">perm</text>
</g>
<!-- math&#45;&gt;math.perm -->
<g id="edge48" class="edge">
<title>math&#45;&gt;math.perm</title>
<path fill="none" stroke="black" d="M2811.77,-89.22C2989.95,-90.45 3984.39,-94.55 4281.32,-36 4283.93,-35.49 4286.58,-34.84 4289.24,-34.11"/>
<polygon fill="black" stroke="black" points="4290.08,-37.52 4298.56,-31.17 4287.97,-30.84 4290.08,-37.52"/>
</g>
<!-- pi -->
<g id="node50" class="node">
<title>pi</title>
<polygon fill="gray" stroke="none" points="4437.32,-36 4383.32,-36 4383.32,0 4437.32,0 4437.32,-36"/>
<text xml:space="preserve" text-anchor="middle" x="4410.32" y="-13.32" font-family="Times,serif" font-size="14.00">pi</text>
</g>
<!-- math&#45;&gt;pi -->
<g id="edge49" class="edge">
<title>math&#45;&gt;pi</title>
<path fill="none" stroke="black" d="M2811.79,-88.76C3006.02,-86.94 4169.93,-74.61 4372.67,-35.42"/>
<polygon fill="black" stroke="black" points="4373.12,-38.9 4382.15,-33.36 4371.63,-32.06 4373.12,-38.9"/>
</g>
<!-- math.pow -->
<g id="node51" class="node">
<title>math.pow</title>
<ellipse fill="lightgreen" stroke="black" cx="4487.32" cy="-18" rx="31.74" ry="18"/>
<text xml:space="preserve" text-anchor="middle" x="4487.32" y="-13.32" font-family="Times,serif" font-size="14.00">pow</text>
</g>
<!-- math&#45;&gt;math.pow -->
<g id="edge50" class="edge">
<title>math&#45;&gt;math.pow</title>
<path fill="none" stroke="black" d="M2811.71,-88.72C3014.58,-86.58 4280.27,-71.82 4446.32,-36 4448.62,-35.5 4450.94,-34.89 4453.27,-34.18"/>
<polygon fill="black" stroke="black" points="4454.26,-37.54 4462.51,-30.9 4451.92,-30.95 4454.26,-37.54"/>
</g>
<!-- math.prod -->
<g id="node52" class="node">
<title>math.prod</title>
<ellipse fill="lightgreen" stroke="black" cx="4571.32" cy="-18" rx="34.37" ry="18"/>
<text xml:space="preserve" text-anchor="middle" x="4571.32" y="-13.32" font-family="Times,serif" font-size="14.00">prod</text>
</g>
<!-- math&#45;&gt;math.prod -->
<g id="edge51" class="edge">
<title>math&#45;&gt;math.prod</title>
<path fill="none" stroke="black" d="M2811.72,-88.74C3020.24,-86.67 4353.38,-72.09 4528.32,-36 4530.65,-35.52 4533.03,-34.92 4535.39,-34.24"/>
<polygon fill="black" stroke="black" points="4536.51,-37.56 4544.87,-31.05 4534.27,-30.92 4536.51,-37.56"/>
</g>
<!-- math.radians -->
<g id="node53" class="node">
<title>math.radians</title>
<ellipse fill="lightgreen" stroke="black" cx="4672.32" cy="-18" rx="48.58" ry="18"/>
<text xml:space="preserve" text-anchor="middle" x="4672.32" y="-13.32" font-family="Times,serif" font-size="14.00">radians</text>
</g>
<!-- math&#45;&gt;math.radians -->
<g id="edge52" class="edge">
<title>math&#45;&gt;math.radians</title>
<path fill="none" stroke="black" d="M2811.8,-89.17C3011.72,-90.24 4245.45,-94.41 4614.32,-36 4618.22,-35.38 4622.23,-34.58 4626.23,-33.66"/>
<polygon fill="black" stroke="black" points="4627.09,-37.05 4635.91,-31.18 4625.36,-30.27 4627.09,-37.05"/>
</g>
<!-- math.remainder -->
<g id="node54" class="node">
<title>math.remainder</title>
<ellipse fill="lightgreen" stroke="black" cx="4802.32" cy="-18" rx="63.31" ry="18"/>
<text xml:space="preserve" text-anchor="middle" x="4802.32" y="-13.32" font-family="Times,serif" font-size="14.00">remainder</text>
</g>
<!-- math&#45;&gt;math.remainder -->
<g id="edge53" class="edge">
<title>math&#45;&gt;math.remainder</title>
<path fill="none" stroke="black" d="M2811.51,-89.02C3017.51,-89.09 4335.27,-87.47 4730.32,-36 4735.61,-35.31 4741.09,-34.4 4746.54,-33.35"/>
<polygon fill="black" stroke="black" points="4747.08,-36.81 4756.16,-31.35 4745.66,-29.96 4747.08,-36.81"/>
</g>
<!-- math.sin -->
<g id="node55" class="node">
<title>math.sin</title>
<ellipse fill="lightgreen" stroke="black" cx="4910.32" cy="-18" rx="27" ry="18"/>
<text xml:space="preserve" text-anchor="middle" x="4910.32" y="-13.32" font-family="Times,serif" font-size="14.00">sin</text>
</g>
<!-- math&#45;&gt;math.sin -->
<g id="edge54" class="edge">
<title>math&#45;&gt;math.sin</title>
<path fill="none" stroke="black" d="M2811.47,-88.99C3041.76,-88.82 4664.43,-85.87 4874.32,-36 4876.09,-35.58 4877.87,-35.07 4879.64,-34.49"/>
<polygon fill="black" stroke="black" points="4880.9,-37.76 4888.89,-30.8 4878.31,-31.25 4880.9,-37.76"/>
</g>
<!-- math.sinh -->
<g id="node56" class="node">
<title>math.sinh</title>
<ellipse fill="lightgreen" stroke="black" cx="4987.32" cy="-18" rx="32.27" ry="18"/>
<text xml:space="preserve" text-anchor="middle" x="4987.32" y="-13.32" font-family="Times,serif" font-size="14.00">sinh</text>
</g>
<!-- math&#45;&gt;math.sinh -->
<g id="edge55" class="edge">
<title>math&#45;&gt;math.sinh</title>
<path fill="none" stroke="black" d="M2811.64,-88.94C3046.93,-88.32 4727.77,-82.3 4946.32,-36 4948.47,-35.54 4950.65,-34.98 4952.82,-34.34"/>
<polygon fill="black" stroke="black" points="4953.8,-37.7 4962.08,-31.09 4951.49,-31.09 4953.8,-37.7"/>
</g>
<!-- math.sqrt -->
<g id="node57" class="node">
<title>math.sqrt</title>
<ellipse fill="lightgreen" stroke="black" cx="5069.32" cy="-18" rx="31.74" ry="18"/>
<text xml:space="preserve" text-anchor="middle" x="5069.32" y="-13.32" font-family="Times,serif" font-size="14.00">sqrt</text>
</g>
<!-- math&#45;&gt;math.sqrt -->
<g id="edge56" class="edge">
<title>math&#45;&gt;math.sqrt</title>
<path fill="none" stroke="black" d="M2811.53,-88.96C3051.39,-88.57 4801.11,-84.03 5028.32,-36 5030.62,-35.51 5032.95,-34.9 5035.27,-34.2"/>
<polygon fill="black" stroke="black" points="5036.26,-37.57 5044.52,-30.93 5033.93,-30.97 5036.26,-37.57"/>
</g>
<!-- math.sumprod -->
<g id="node58" class="node">
<title>math.sumprod</title>
<ellipse fill="lightgreen" stroke="black" cx="5174.32" cy="-18" rx="55.42" ry="18"/>
<text xml:space="preserve" text-anchor="middle" x="5174.32" y="-13.32" font-family="Times,serif" font-size="14.00">sumprod</text>
</g>
<!-- math&#45;&gt;math.sumprod -->
<g id="edge57" class="edge">
<title>math&#45;&gt;math.sumprod</title>
<path fill="none" stroke="black" d="M2811.71,-88.77C3056.96,-86.65 4871.75,-69.91 5110.32,-36 5114.74,-35.37 5119.29,-34.54 5123.83,-33.59"/>
<polygon fill="black" stroke="black" points="5124.59,-37.01 5133.54,-31.34 5123.01,-30.19 5124.59,-37.01"/>
</g>
<!-- math.tan -->
<g id="node59" class="node">
<title>math.tan</title>
<ellipse fill="lightgreen" stroke="black" cx="5275.32" cy="-18" rx="27.53" ry="18"/>
<text xml:space="preserve" text-anchor="middle" x="5275.32" y="-13.32" font-family="Times,serif" font-size="14.00">tan</text>
</g>
<!-- math&#45;&gt;math.tan -->
<g id="edge58" class="edge">
<title>math&#45;&gt;math.tan</title>
<path fill="none" stroke="black" d="M2811.67,-89.08C3064.45,-89.77 4990.05,-93.12 5238.32,-36 5240.21,-35.56 5242.13,-35.03 5244.04,-34.41"/>
<polygon fill="black" stroke="black" points="5245.25,-37.69 5253.31,-30.81 5242.72,-31.17 5245.25,-37.69"/>
</g>
<!-- math.tanh -->
<g id="node60" class="node">
<title>math.tanh</title>
<ellipse fill="lightgreen" stroke="black" cx="5354.32" cy="-18" rx="33.85" ry="18"/>
<text xml:space="preserve" text-anchor="middle" x="5354.32" y="-13.32" font-family="Times,serif" font-size="14.00">tanh</text>
</g>
<!-- math&#45;&gt;math.tanh -->
<g id="edge59" class="edge">
<title>math&#45;&gt;math.tanh</title>
<path fill="none" stroke="black" d="M2811.66,-89.03C3068.58,-89.21 5055,-88.91 5312.32,-36 5314.61,-35.53 5316.93,-34.94 5319.25,-34.26"/>
<polygon fill="black" stroke="black" points="5320.16,-37.65 5328.48,-31.1 5317.89,-31.03 5320.16,-37.65"/>
</g>
<!-- tau -->
<g id="node61" class="node">
<title>tau</title>
<polygon fill="gray" stroke="none" points="5460.32,-36 5406.32,-36 5406.32,0 5460.32,0 5460.32,-36"/>
<text xml:space="preserve" text-anchor="middle" x="5433.32" y="-13.32" font-family="Times,serif" font-size="14.00">tau</text>
</g>
<!-- math&#45;&gt;tau -->
<g id="edge60" class="edge">
<title>math&#45;&gt;tau</title>
<path fill="none" stroke="black" d="M2811.69,-88.77C3076.36,-86.54 5176.01,-67.93 5395.37,-35.16"/>
<polygon fill="black" stroke="black" points="5395.95,-38.61 5405.15,-33.36 5394.68,-31.73 5395.95,-38.61"/>
</g>
<!-- math.trunc -->
<g id="node62" class="node">
<title>math.trunc</title>
<ellipse fill="lightgreen" stroke="black" cx="5516.32" cy="-18" rx="38.06" ry="18"/>
<text xml:space="preserve" text-anchor="middle" x="5516.32" y="-13.32" font-family="Times,serif" font-size="14.00">trunc</text>
</g>
<!-- math&#45;&gt;math.trunc -->
<g id="edge61" class="edge">
<title>math&#45;&gt;math.trunc</title>
<path fill="none" stroke="black" d="M2811.66,-89C3077.28,-88.96 5194.41,-86.99 5469.32,-36 5472.12,-35.48 5474.97,-34.82 5477.82,-34.05"/>
<polygon fill="black" stroke="black" points="5478.69,-37.44 5487.21,-31.15 5476.62,-30.76 5478.69,-37.44"/>
</g>
<!-- math.ulp -->
<g id="node63" class="node">
<title>math.ulp</title>
<ellipse fill="lightgreen" stroke="black" cx="5599.32" cy="-18" rx="27.01" ry="18"/>
<text xml:space="preserve" text-anchor="middle" x="5599.32" y="-13.32" font-family="Times,serif" font-size="14.00">ulp</text>
</g>
<!-- math&#45;&gt;math.ulp -->
<g id="edge62" class="edge">
<title>math&#45;&gt;math.ulp</title>
<path fill="none" stroke="black" d="M2811.66,-88.81C3091.13,-86.8 5422,-69.11 5563.32,-36 5565.09,-35.59 5566.87,-35.08 5568.65,-34.5"/>
<polygon fill="black" stroke="black" points="5569.89,-37.77 5577.9,-30.83 5567.31,-31.26 5569.89,-37.77"/>
</g>
</g>
</svg>
