<?xml version="1.0" encoding="UTF-8" standalone="no"?>
<!DOCTYPE svg PUBLIC "-//W3C//DTD SVG 1.1//EN"
 "http://www.w3.org/Graphics/SVG/1.1/DTD/svg11.dtd">
<!-- Generated by graphviz version 14.1.2 (0)
 -->
<!-- Title: libscan Pages: 1 -->
<svg width="4038pt" height="188pt"
 viewBox="0.00 0.00 4038.00 188.00" xmlns="http://www.w3.org/2000/svg" xmlns:xlink="http://www.w3.org/1999/xlink">
<g id="graph0" class="graph" transform="scale(1 1) rotate(0) translate(4 184)">
<title>libscan</title>
<polygon fill="white" stroke="none" points="-4,4 -4,-184 4034.03,-184 4034.03,4 -4,4"/>
<!-- random -->
<g id="node1" class="node">
<title>random</title>
<ellipse fill="lightgreen" stroke="black" cx="2327.3" cy="-162" rx="49.63" ry="18"/>
<text xml:space="preserve" text-anchor="middle" x="2327.3" y="-157.32" font-family="Times,serif" font-size="14.00">random</text>
</g>
<!-- random&#45;&gt;random -->
<g id="edge74" class="edge">
<title>random&#45;&gt;random</title>
<path fill="none" stroke="black" d="M2362.44,-175.14C2379.66,-176.86 2394.93,-172.48 2394.93,-162 2394.93,-153.9 2385.79,-149.44 2373.69,-148.63"/>
<polygon fill="black" stroke="black" points="2373.88,-145.13 2363.96,-148.83 2374.03,-152.13 2373.88,-145.13"/>
</g>
<!-- BPF -->
<g id="node2" class="node">
<title>BPF</title>
<polygon fill="gray" stroke="none" points="1210.3,-108 1156.3,-108 1156.3,-72 1210.3,-72 1210.3,-108"/>
<text xml:space="preserve" text-anchor="middle" x="1183.3" y="-85.33" font-family="Times,serif" font-size="14.00">BPF</text>
</g>
<!-- random&#45;&gt;BPF -->
<g id="edge1" class="edge">
<title>random&#45;&gt;BPF</title>
<path fill="none" stroke="black" d="M2277.38,-161.2C2092.43,-161.54 1445.87,-159.13 1221.03,-107.65"/>
<polygon fill="black" stroke="black" points="1222.02,-104.28 1211.48,-105.35 1220.38,-111.09 1222.02,-104.28"/>
</g>
<!-- LOG4 -->
<g id="node3" class="node">
<title>LOG4</title>
<polygon fill="gray" stroke="none" points="1284.55,-108 1228.05,-108 1228.05,-72 1284.55,-72 1284.55,-108"/>
<text xml:space="preserve" text-anchor="middle" x="1256.3" y="-85.33" font-family="Times,serif" font-size="14.00">LOG4</text>
</g>
<!-- random&#45;&gt;LOG4 -->
<g id="edge2" class="edge">
<title>random&#45;&gt;LOG4</title>
<path fill="none" stroke="black" d="M2277.37,-160.93C2100.73,-160.31 1505.29,-154.87 1295.37,-107.78"/>
<polygon fill="black" stroke="black" points="1296.19,-104.38 1285.66,-105.49 1294.58,-111.19 1296.19,-104.38"/>
</g>
<!-- NV_MAGICCONST -->
<g id="node4" class="node">
<title>NV_MAGICCONST</title>
<polygon fill="gray" stroke="none" points="1450.3,-108 1302.3,-108 1302.3,-72 1450.3,-72 1450.3,-108"/>
<text xml:space="preserve" text-anchor="middle" x="1376.3" y="-85.33" font-family="Times,serif" font-size="14.00">NV_MAGICCONST</text>
</g>
<!-- random&#45;&gt;NV_MAGICCONST -->
<g id="edge3" class="edge">
<title>random&#45;&gt;NV_MAGICCONST</title>
<path fill="none" stroke="black" d="M2277.64,-160.41C2146.07,-158.34 1777.52,-149.15 1461.21,-108.12"/>
<polygon fill="black" stroke="black" points="1461.85,-104.68 1451.48,-106.85 1460.94,-111.62 1461.85,-104.68"/>
</g>
<!-- RECIP_BPF -->
<g id="node5" class="node">
<title>RECIP_BPF</title>
<polygon fill="gray" stroke="none" points="1567.93,-108 1468.68,-108 1468.68,-72 1567.93,-72 1567.93,-108"/>
<text xml:space="preserve" text-anchor="middle" x="1518.3" y="-85.33" font-family="Times,serif" font-size="14.00">RECIP_BPF</text>
</g>
<!-- random&#45;&gt;RECIP_BPF -->
<g id="edge4" class="edge">
<title>random&#45;&gt;RECIP_BPF</title>
<path fill="none" stroke="black" d="M2277.67,-160.69C2157.48,-159.24 1841.62,-151.27 1582.3,-108 1581.11,-107.8 1579.91,-107.59 1578.7,-107.37"/>
<polygon fill="black" stroke="black" points="1579.7,-104 1569.2,-105.42 1578.29,-110.86 1579.7,-104"/>
</g>
<!-- random.Random -->
<g id="node6" class="node">
<title>random.Random</title>
<polygon fill="orange" stroke="black" points="2364.55,-108 2290.05,-108 2290.05,-72 2364.55,-72 2364.55,-108"/>
<text xml:space="preserve" text-anchor="middle" x="2327.3" y="-85.33" font-family="Times,serif" font-size="14.00">Random</text>
</g>
<!-- random&#45;&gt;random.Random -->
<g id="edge5" class="edge">
<title>random&#45;&gt;random.Random</title>
<path fill="none" stroke="black" d="M2321.39,-143.7C2320.63,-136.41 2320.39,-127.73 2320.65,-119.54"/>
<polygon fill="black" stroke="black" points="2324.14,-119.82 2321.31,-109.61 2317.16,-119.36 2324.14,-119.82"/>
</g>
<!-- random.Random.betavariate -->
<g id="node8" class="node">
<title>random.Random.betavariate</title>
<ellipse fill="lightgreen" stroke="black" cx="351.3" cy="-18" rx="68.57" ry="18"/>
<text xml:space="preserve" text-anchor="middle" x="351.3" y="-13.32" font-family="Times,serif" font-size="14.00">betavariate</text>
</g>
<!-- random&#45;&gt;random.Random.betavariate -->
<g id="edge59" class="edge">
<title>random&#45;&gt;random.Random.betavariate</title>
<path fill="none" stroke="black" d="M2277.44,-161.1C2145.79,-160.71 1791.81,-155.17 1686.3,-108 1665.06,-98.5 1669.78,-80.93 1648.3,-72 1523.18,-19.99 563.8,-52.5 429.3,-36 423.28,-35.26 417.04,-34.28 410.83,-33.16"/>
<polygon fill="black" stroke="black" points="411.71,-29.76 401.23,-31.3 410.38,-36.64 411.71,-29.76"/>
</g>
<!-- random.Random.binomialvariate -->
<g id="node9" class="node">
<title>random.Random.binomialvariate</title>
<ellipse fill="lightgreen" stroke="black" cx="1265.3" cy="-18" rx="89.61" ry="18"/>
<text xml:space="preserve" text-anchor="middle" x="1265.3" y="-13.32" font-family="Times,serif" font-size="14.00">binomialvariate</text>
</g>
<!-- random&#45;&gt;random.Random.binomialvariate -->
<g id="edge60" class="edge">
<title>random&#45;&gt;random.Random.binomialvariate</title>
<path fill="none" stroke="black" d="M2277.72,-160.46C2157.51,-158.5 1853.7,-149.47 1762.3,-108 1741.12,-98.39 1745.46,-81.68 1724.3,-72 1578.08,-5.11 1523.64,-57.62 1364.3,-36 1356.87,-34.99 1349.14,-33.84 1341.43,-32.63"/>
<polygon fill="black" stroke="black" points="1342.09,-29.19 1331.66,-31.05 1340.98,-36.1 1342.09,-29.19"/>
</g>
<!-- random.Random.choice -->
<g id="node10" class="node">
<title>random.Random.choice</title>
<ellipse fill="lightgreen" stroke="black" cx="1871.3" cy="-18" rx="42.79" ry="18"/>
<text xml:space="preserve" text-anchor="middle" x="1871.3" y="-13.32" font-family="Times,serif" font-size="14.00">choice</text>
</g>
<!-- random&#45;&gt;random.Random.choice -->
<g id="edge61" class="edge">
<title>random&#45;&gt;random.Random.choice</title>
<path fill="none" stroke="black" d="M2286.87,-151.07C2246.68,-140.99 2183.41,-124.55 2129.3,-108 2052.26,-84.43 1963.75,-52.91 1912.99,-34.4"/>
<polygon fill="black" stroke="black" points="1914.46,-31.21 1903.86,-31.06 1912.05,-37.78 1914.46,-31.21"/>
</g>
<!-- random.Random.choices -->
<g id="node11" class="node">
<title>random.Random.choices</title>
<ellipse fill="lightgreen" stroke="black" cx="486.3" cy="-18" rx="48.05" ry="18"/>
<text xml:space="preserve" text-anchor="middle" x="486.3" y="-13.32" font-family="Times,serif" font-size="14.00">choices</text>
</g>
<!-- random&#45;&gt;random.Random.choices -->
<g id="edge62" class="edge">
<title>random&#45;&gt;random.Random.choices</title>
<path fill="none" stroke="black" d="M2277.66,-160.8C2151.71,-159.64 1822.76,-152.33 1724.3,-108 1703.09,-98.45 1707.77,-80.95 1686.3,-72 1569.02,-23.11 668.73,-56.33 543.3,-36 539.52,-35.39 535.63,-34.59 531.75,-33.69"/>
<polygon fill="black" stroke="black" points="532.96,-30.38 522.4,-31.26 531.2,-37.16 532.96,-30.38"/>
</g>
<!-- random.Random.expovariate -->
<g id="node12" class="node">
<title>random.Random.expovariate</title>
<ellipse fill="lightgreen" stroke="black" cx="1443.3" cy="-18" rx="70.15" ry="18"/>
<text xml:space="preserve" text-anchor="middle" x="1443.3" y="-13.32" font-family="Times,serif" font-size="14.00">expovariate</text>
</g>
<!-- random&#45;&gt;random.Random.expovariate -->
<g id="edge63" class="edge">
<title>random&#45;&gt;random.Random.expovariate</title>
<path fill="none" stroke="black" d="M2277.9,-159.67C2164.71,-156.02 1889.86,-143.66 1805.3,-108 1782.33,-98.31 1785.03,-82.23 1762.3,-72 1663.95,-27.73 1628.41,-55.36 1522.3,-36 1516.83,-35 1511.17,-33.91 1505.49,-32.77"/>
<polygon fill="black" stroke="black" points="1506.61,-29.42 1496.11,-30.84 1505.2,-36.28 1506.61,-29.42"/>
</g>
<!-- random.Random.gammavariate -->
<g id="node13" class="node">
<title>random.Random.gammavariate</title>
<ellipse fill="lightgreen" stroke="black" cx="83.3" cy="-18" rx="83.3" ry="18"/>
<text xml:space="preserve" text-anchor="middle" x="83.3" y="-13.32" font-family="Times,serif" font-size="14.00">gammavariate</text>
</g>
<!-- random&#45;&gt;random.Random.gammavariate -->
<g id="edge64" class="edge">
<title>random&#45;&gt;random.Random.gammavariate</title>
<path fill="none" stroke="black" d="M2277.67,-159.44C2125.15,-154.37 1670.01,-136.94 1610.3,-108 1590.77,-98.53 1597.05,-80.99 1577.3,-72 1506.39,-39.71 252.79,-44.1 175.3,-36 167.92,-35.23 160.24,-34.19 152.61,-33.01"/>
<polygon fill="black" stroke="black" points="153.43,-29.59 143,-31.43 152.3,-36.5 153.43,-29.59"/>
</g>
<!-- random.Random.gauss -->
<g id="node14" class="node">
<title>random.Random.gauss</title>
<ellipse fill="lightgreen" stroke="black" cx="224.3" cy="-18" rx="40.16" ry="18"/>
<text xml:space="preserve" text-anchor="middle" x="224.3" y="-13.32" font-family="Times,serif" font-size="14.00">gauss</text>
</g>
<!-- random&#45;&gt;random.Random.gauss -->
<g id="edge65" class="edge">
<title>random&#45;&gt;random.Random.gauss</title>
<path fill="none" stroke="black" d="M2277.48,-161.37C2140.51,-161.73 1760.95,-158.05 1648.3,-108 1627.04,-98.55 1631.79,-80.9 1610.3,-72 1473,-15.14 419.5,-62.67 273.3,-36 270.33,-35.46 267.3,-34.77 264.27,-33.97"/>
<polygon fill="black" stroke="black" points="265.48,-30.68 254.9,-31.18 263.48,-37.39 265.48,-30.68"/>
</g>
<!-- getrandbits -->
<g id="node15" class="node">
<title>getrandbits</title>
<ellipse fill="lightgreen" stroke="black" cx="3487.3" cy="-18" rx="69.62" ry="18"/>
<text xml:space="preserve" text-anchor="middle" x="3487.3" y="-13.32" font-family="Times,serif" font-size="14.00">getrandbits</text>
</g>
<!-- random&#45;&gt;getrandbits -->
<g id="edge66" class="edge">
<title>random&#45;&gt;getrandbits</title>
<path fill="none" stroke="black" d="M2376.91,-159.54C2439.34,-156.14 2548.75,-144.9 2634.3,-108 2658.79,-97.44 2657.22,-81.06 2682.3,-72 2834.44,-17.07 3248.96,-57.3 3409.3,-36 3414.99,-35.24 3420.89,-34.29 3426.77,-33.21"/>
<polygon fill="black" stroke="black" points="3427.37,-36.66 3436.52,-31.32 3426.03,-29.79 3427.37,-36.66"/>
</g>
<!-- random.Random.getstate -->
<g id="node16" class="node">
<title>random.Random.getstate</title>
<ellipse fill="lightgreen" stroke="black" cx="3627.3" cy="-18" rx="52.79" ry="18"/>
<text xml:space="preserve" text-anchor="middle" x="3627.3" y="-13.32" font-family="Times,serif" font-size="14.00">getstate</text>
</g>
<!-- random&#45;&gt;random.Random.getstate -->
<g id="edge67" class="edge">
<title>random&#45;&gt;random.Random.getstate</title>
<path fill="none" stroke="black" d="M2377.05,-160.86C2445.99,-159.02 2573.28,-149.63 2672.3,-108 2696.88,-97.67 2695.19,-80.97 2720.3,-72 2897.51,-8.71 3380.45,-65.45 3566.3,-36 3570.34,-35.36 3574.49,-34.55 3578.64,-33.63"/>
<polygon fill="black" stroke="black" points="3579.17,-37.1 3588.06,-31.33 3577.51,-30.3 3579.17,-37.1"/>
</g>
<!-- random.Random.lognormvariate -->
<g id="node17" class="node">
<title>random.Random.lognormvariate</title>
<ellipse fill="lightgreen" stroke="black" cx="1619.3" cy="-18" rx="88.04" ry="18"/>
<text xml:space="preserve" text-anchor="middle" x="1619.3" y="-13.32" font-family="Times,serif" font-size="14.00">lognormvariate</text>
</g>
<!-- random&#45;&gt;random.Random.lognormvariate -->
<g id="edge68" class="edge">
<title>random&#45;&gt;random.Random.lognormvariate</title>
<path fill="none" stroke="black" d="M2278.73,-157.54C2216.83,-152.04 2107.21,-138.6 2018.3,-108 1986.34,-97 1983.36,-82.73 1951.3,-72 1851.51,-38.62 1821.14,-52.99 1717.3,-36 1710.23,-34.84 1702.87,-33.61 1695.51,-32.37"/>
<polygon fill="black" stroke="black" points="1696.31,-28.95 1685.87,-30.72 1695.14,-35.85 1696.31,-28.95"/>
</g>
<!-- random.Random.normalvariate -->
<g id="node18" class="node">
<title>random.Random.normalvariate</title>
<ellipse fill="lightgreen" stroke="black" cx="2014.3" cy="-18" rx="81.72" ry="18"/>
<text xml:space="preserve" text-anchor="middle" x="2014.3" y="-13.32" font-family="Times,serif" font-size="14.00">normalvariate</text>
</g>
<!-- random&#45;&gt;random.Random.normalvariate -->
<g id="edge70" class="edge">
<title>random&#45;&gt;random.Random.normalvariate</title>
<path fill="none" stroke="black" d="M2297.29,-147.38C2242.07,-122.33 2124.08,-68.81 2059.26,-39.4"/>
<polygon fill="black" stroke="black" points="2060.88,-36.29 2050.33,-35.34 2057.99,-42.66 2060.88,-36.29"/>
</g>
<!-- random.Random.paretovariate -->
<g id="node19" class="node">
<title>random.Random.paretovariate</title>
<ellipse fill="lightgreen" stroke="black" cx="2193.3" cy="-18" rx="79.09" ry="18"/>
<text xml:space="preserve" text-anchor="middle" x="2193.3" y="-13.32" font-family="Times,serif" font-size="14.00">paretovariate</text>
</g>
<!-- random&#45;&gt;random.Random.paretovariate -->
<g id="edge71" class="edge">
<title>random&#45;&gt;random.Random.paretovariate</title>
<path fill="none" stroke="black" d="M2310.12,-145.1C2299.1,-134.74 2284.61,-120.82 2272.3,-108 2252.26,-87.12 2230.5,-62.44 2214.9,-44.38"/>
<polygon fill="black" stroke="black" points="2217.93,-42.53 2208.76,-37.23 2212.62,-47.1 2217.93,-42.53"/>
</g>
<!-- random.Random.randbytes -->
<g id="node20" class="node">
<title>random.Random.randbytes</title>
<ellipse fill="lightgreen" stroke="black" cx="3760.3" cy="-18" rx="61.73" ry="18"/>
<text xml:space="preserve" text-anchor="middle" x="3760.3" y="-13.32" font-family="Times,serif" font-size="14.00">randbytes</text>
</g>
<!-- random&#45;&gt;random.Random.randbytes -->
<g id="edge72" class="edge">
<title>random&#45;&gt;random.Random.randbytes</title>
<path fill="none" stroke="black" d="M2377.42,-161.93C2452.61,-161.61 2597.79,-154.31 2710.3,-108 2734.96,-97.85 2733.17,-80.92 2758.3,-72 2953.42,-2.74 3484.19,-64.24 3689.3,-36 3694.52,-35.28 3699.92,-34.35 3705.29,-33.29"/>
<polygon fill="black" stroke="black" points="3705.71,-36.78 3714.76,-31.28 3704.25,-29.93 3705.71,-36.78"/>
</g>
<!-- random.Random.randint -->
<g id="node21" class="node">
<title>random.Random.randint</title>
<ellipse fill="lightgreen" stroke="black" cx="2338.3" cy="-18" rx="48.05" ry="18"/>
<text xml:space="preserve" text-anchor="middle" x="2338.3" y="-13.32" font-family="Times,serif" font-size="14.00">randint</text>
</g>
<!-- random&#45;&gt;random.Random.randint -->
<g id="edge73" class="edge">
<title>random&#45;&gt;random.Random.randint</title>
<path fill="none" stroke="black" d="M2307.92,-145C2297.9,-135.45 2286.67,-122.38 2281.3,-108 2275.7,-93.01 2274.91,-86.67 2281.3,-72 2286.51,-60.05 2295.88,-49.58 2305.55,-41.17"/>
<polygon fill="black" stroke="black" points="2307.62,-43.99 2313.22,-35 2303.23,-38.54 2307.62,-43.99"/>
</g>
<!-- random.Random.randrange -->
<g id="node22" class="node">
<title>random.Random.randrange</title>
<ellipse fill="lightgreen" stroke="black" cx="2975.3" cy="-18" rx="63.31" ry="18"/>
<text xml:space="preserve" text-anchor="middle" x="2975.3" y="-13.32" font-family="Times,serif" font-size="14.00">randrange</text>
</g>
<!-- random&#45;&gt;random.Random.randrange -->
<g id="edge75" class="edge">
<title>random&#45;&gt;random.Random.randrange</title>
<path fill="none" stroke="black" d="M2367.57,-150.99C2399.72,-142.12 2445.35,-127.55 2482.3,-108 2505.87,-95.53 2505.44,-81.64 2530.3,-72 2685.59,-11.8 2738.99,-63.2 2903.3,-36 2908.21,-35.19 2913.28,-34.23 2918.35,-33.19"/>
<polygon fill="black" stroke="black" points="2918.88,-36.66 2927.92,-31.14 2917.4,-29.82 2918.88,-36.66"/>
</g>
<!-- random.Random.sample -->
<g id="node23" class="node">
<title>random.Random.sample</title>
<ellipse fill="lightgreen" stroke="black" cx="3103.3" cy="-18" rx="47" ry="18"/>
<text xml:space="preserve" text-anchor="middle" x="3103.3" y="-13.32" font-family="Times,serif" font-size="14.00">sample</text>
</g>
<!-- random&#45;&gt;random.Random.sample -->
<g id="edge76" class="edge">
<title>random&#45;&gt;random.Random.sample</title>
<path fill="none" stroke="black" d="M2371.92,-153.68C2412.17,-145.95 2472.25,-131.55 2520.3,-108 2544.25,-96.26 2543.34,-81.38 2568.3,-72 2768.16,3.06 2837.45,-75.24 3047.3,-36 3050.85,-35.34 3054.49,-34.53 3058.12,-33.63"/>
<polygon fill="black" stroke="black" points="3058.73,-37.09 3067.48,-31.12 3056.92,-30.33 3058.73,-37.09"/>
</g>
<!-- random.Random.seed -->
<g id="node24" class="node">
<title>random.Random.seed</title>
<ellipse fill="lightgreen" stroke="black" cx="3874.3" cy="-18" rx="34.37" ry="18"/>
<text xml:space="preserve" text-anchor="middle" x="3874.3" y="-13.32" font-family="Times,serif" font-size="14.00">seed</text>
</g>
<!-- random&#45;&gt;random.Random.seed -->
<g id="edge77" class="edge">
<title>random&#45;&gt;random.Random.seed</title>
<path fill="none" stroke="black" d="M2375.91,-158.02C2471.76,-151.63 2681.63,-134.97 2748.3,-108 2773.02,-98 2771.15,-80.87 2796.3,-72 3013.33,4.56 3606.01,-82.99 3831.3,-36 3833.63,-35.51 3836,-34.91 3838.37,-34.23"/>
<polygon fill="black" stroke="black" points="3839.49,-37.54 3847.84,-31.03 3837.25,-30.91 3839.49,-37.54"/>
</g>
<!-- random.Random.setstate -->
<g id="node25" class="node">
<title>random.Random.setstate</title>
<ellipse fill="lightgreen" stroke="black" cx="3978.3" cy="-18" rx="51.73" ry="18"/>
<text xml:space="preserve" text-anchor="middle" x="3978.3" y="-13.32" font-family="Times,serif" font-size="14.00">setstate</text>
</g>
<!-- random&#45;&gt;random.Random.setstate -->
<g id="edge78" class="edge">
<title>random&#45;&gt;random.Random.setstate</title>
<path fill="none" stroke="black" d="M2376.46,-158.88C2479.26,-153.88 2713.43,-139.32 2786.3,-108 2809.2,-98.16 2806.02,-80.9 2829.3,-72 2942.29,-28.82 3797.75,-54.37 3917.3,-36 3921.58,-35.34 3925.98,-34.49 3930.38,-33.51"/>
<polygon fill="black" stroke="black" points="3930.84,-37 3939.72,-31.22 3929.17,-30.2 3930.84,-37"/>
</g>
<!-- random.Random.shuffle -->
<g id="node26" class="node">
<title>random.Random.shuffle</title>
<ellipse fill="lightgreen" stroke="black" cx="3213.3" cy="-18" rx="44.89" ry="18"/>
<text xml:space="preserve" text-anchor="middle" x="3213.3" y="-13.32" font-family="Times,serif" font-size="14.00">shuffle</text>
</g>
<!-- random&#45;&gt;random.Random.shuffle -->
<g id="edge79" class="edge">
<title>random&#45;&gt;random.Random.shuffle</title>
<path fill="none" stroke="black" d="M2374.3,-156.04C2422.34,-149.66 2498.21,-135.89 2558.3,-108 2582.49,-96.77 2581.29,-81.25 2606.3,-72 2721.8,-29.28 3038.25,-58.65 3159.3,-36 3162.67,-35.37 3166.12,-34.6 3169.58,-33.73"/>
<polygon fill="black" stroke="black" points="3170.33,-37.15 3179.03,-31.11 3168.46,-30.4 3170.33,-37.15"/>
</g>
<!-- random.Random.triangular -->
<g id="node27" class="node">
<title>random.Random.triangular</title>
<ellipse fill="lightgreen" stroke="black" cx="3338.3" cy="-18" rx="61.73" ry="18"/>
<text xml:space="preserve" text-anchor="middle" x="3338.3" y="-13.32" font-family="Times,serif" font-size="14.00">triangular</text>
</g>
<!-- random&#45;&gt;random.Random.triangular -->
<g id="edge80" class="edge">
<title>random&#45;&gt;random.Random.triangular</title>
<path fill="none" stroke="black" d="M2375.9,-157.96C2431.34,-153.04 2523.69,-140.34 2596.3,-108 2620.66,-97.15 2619.26,-81.16 2644.3,-72 2774.54,-24.37 3130.11,-56.23 3267.3,-36 3272.3,-35.26 3277.47,-34.34 3282.63,-33.31"/>
<polygon fill="black" stroke="black" points="3283.32,-36.75 3292.36,-31.24 3281.85,-29.9 3283.32,-36.75"/>
</g>
<!-- random.Random.uniform -->
<g id="node28" class="node">
<title>random.Random.uniform</title>
<ellipse fill="lightgreen" stroke="black" cx="2455.3" cy="-18" rx="50.68" ry="18"/>
<text xml:space="preserve" text-anchor="middle" x="2455.3" y="-13.32" font-family="Times,serif" font-size="14.00">uniform</text>
</g>
<!-- random&#45;&gt;random.Random.uniform -->
<g id="edge81" class="edge">
<title>random&#45;&gt;random.Random.uniform</title>
<path fill="none" stroke="black" d="M2342.23,-144.43C2364.59,-119.64 2406.89,-72.7 2432.94,-43.81"/>
<polygon fill="black" stroke="black" points="2435.35,-46.36 2439.45,-36.59 2430.15,-41.67 2435.35,-46.36"/>
</g>
<!-- random.Random.vonmisesvariate -->
<g id="node29" class="node">
<title>random.Random.vonmisesvariate</title>
<ellipse fill="lightgreen" stroke="black" cx="2617.3" cy="-18" rx="93.3" ry="18"/>
<text xml:space="preserve" text-anchor="middle" x="2617.3" y="-13.32" font-family="Times,serif" font-size="14.00">vonmisesvariate</text>
</g>
<!-- random&#45;&gt;random.Random.vonmisesvariate -->
<g id="edge82" class="edge">
<title>random&#45;&gt;random.Random.vonmisesvariate</title>
<path fill="none" stroke="black" d="M2350.32,-145.68C2365.93,-135.21 2386.98,-120.95 2405.3,-108 2427.37,-92.4 2430.26,-84.33 2454.3,-72 2484.25,-56.64 2519.55,-44.5 2549.63,-35.74"/>
<polygon fill="black" stroke="black" points="2550.34,-39.18 2559,-33.08 2548.43,-32.45 2550.34,-39.18"/>
</g>
<!-- random.Random.weibullvariate -->
<g id="node30" class="node">
<title>random.Random.weibullvariate</title>
<ellipse fill="lightgreen" stroke="black" cx="2811.3" cy="-18" rx="82.77" ry="18"/>
<text xml:space="preserve" text-anchor="middle" x="2811.3" y="-13.32" font-family="Times,serif" font-size="14.00">weibullvariate</text>
</g>
<!-- random&#45;&gt;random.Random.weibullvariate -->
<g id="edge83" class="edge">
<title>random&#45;&gt;random.Random.weibullvariate</title>
<path fill="none" stroke="black" d="M2360.54,-148.22C2384.5,-138.47 2417.24,-124.01 2444.3,-108 2467.25,-94.42 2467.74,-82.39 2492.3,-72 2586.37,-32.18 2618.62,-53.28 2719.3,-36 2725.76,-34.89 2732.47,-33.71 2739.19,-32.5"/>
<polygon fill="black" stroke="black" points="2739.76,-35.96 2748.98,-30.74 2738.52,-29.07 2739.76,-35.96"/>
</g>
<!-- SG_MAGICCONST -->
<g id="node31" class="node">
<title>SG_MAGICCONST</title>
<polygon fill="gray" stroke="none" points="2985.93,-108 2838.68,-108 2838.68,-72 2985.93,-72 2985.93,-108"/>
<text xml:space="preserve" text-anchor="middle" x="2912.3" y="-85.33" font-family="Times,serif" font-size="14.00">SG_MAGICCONST</text>
</g>
<!-- random&#45;&gt;SG_MAGICCONST -->
<g id="edge31" class="edge">
<title>random&#45;&gt;SG_MAGICCONST</title>
<path fill="none" stroke="black" d="M2375.45,-157.23C2464.41,-149.96 2660.39,-132.53 2824.3,-108 2825.49,-107.82 2826.69,-107.64 2827.9,-107.45"/>
<polygon fill="black" stroke="black" points="2828.11,-110.96 2837.42,-105.9 2826.99,-104.05 2828.11,-110.96"/>
</g>
<!-- random.SystemRandom -->
<g id="node32" class="node">
<title>random.SystemRandom</title>
<polygon fill="orange" stroke="black" points="1942.18,-108 1814.43,-108 1814.43,-72 1942.18,-72 1942.18,-108"/>
<text xml:space="preserve" text-anchor="middle" x="1878.3" y="-85.33" font-family="Times,serif" font-size="14.00">SystemRandom</text>
</g>
<!-- random&#45;&gt;random.SystemRandom -->
<g id="edge32" class="edge">
<title>random&#45;&gt;random.SystemRandom</title>
<path fill="none" stroke="black" d="M2281.55,-154.52C2214.18,-144.89 2084.39,-126.01 1974.3,-108 1967.64,-106.91 1960.72,-105.75 1953.79,-104.56"/>
<polygon fill="black" stroke="black" points="1954.49,-101.13 1944.04,-102.88 1953.3,-108.03 1954.49,-101.13"/>
</g>
<!-- TWOPI -->
<g id="node38" class="node">
<title>TWOPI</title>
<polygon fill="gray" stroke="none" points="3069.05,-108 3003.55,-108 3003.55,-72 3069.05,-72 3069.05,-108"/>
<text xml:space="preserve" text-anchor="middle" x="3036.3" y="-85.33" font-family="Times,serif" font-size="14.00">TWOPI</text>
</g>
<!-- random&#45;&gt;TWOPI -->
<g id="edge58" class="edge">
<title>random&#45;&gt;TWOPI</title>
<path fill="none" stroke="black" d="M2376.54,-159.09C2506.55,-153.75 2857.75,-137.24 2993.05,-107.99"/>
<polygon fill="black" stroke="black" points="2993.5,-111.48 3002.46,-105.84 2991.93,-104.66 2993.5,-111.48"/>
</g>
<!-- random.main -->
<g id="node39" class="node">
<title>random.main</title>
<ellipse fill="lightgreen" stroke="black" cx="3123.3" cy="-90" rx="35.95" ry="18"/>
<text xml:space="preserve" text-anchor="middle" x="3123.3" y="-85.33" font-family="Times,serif" font-size="14.00">main</text>
</g>
<!-- random&#45;&gt;random.main -->
<g id="edge69" class="edge">
<title>random&#45;&gt;random.main</title>
<path fill="none" stroke="black" d="M2376.79,-159.38C2521.77,-154.35 2943.76,-137.5 3078.3,-108 3080.75,-107.46 3083.25,-106.82 3085.75,-106.1"/>
<polygon fill="black" stroke="black" points="3086.71,-109.46 3095.12,-103.02 3084.53,-102.81 3086.71,-109.46"/>
</g>
<!-- random.Random&#45;&gt;random -->
<g id="edge21" class="edge">
<title>random.Random&#45;&gt;random</title>
<path fill="none" stroke="black" d="M2333.2,-108.1C2333.96,-115.37 2334.21,-124.04 2333.95,-132.24"/>
<polygon fill="black" stroke="black" points="2330.46,-131.98 2333.31,-142.19 2337.45,-132.43 2330.46,-131.98"/>
</g>
<!-- VERSION -->
<g id="node7" class="node">
<title>VERSION</title>
<polygon fill="gray" stroke="none" points="1810.8,-36 1725.8,-36 1725.8,0 1810.8,0 1810.8,-36"/>
<text xml:space="preserve" text-anchor="middle" x="1768.3" y="-13.32" font-family="Times,serif" font-size="14.00">VERSION</text>
</g>
<!-- random.Random&#45;&gt;VERSION -->
<g id="edge6" class="edge">
<title>random.Random&#45;&gt;VERSION</title>
<path fill="none" stroke="black" d="M2289.58,-87.87C2206.41,-84.78 2001.08,-73.88 1821.9,-36.29"/>
<polygon fill="black" stroke="black" points="1822.68,-32.88 1812.16,-34.21 1821.21,-39.72 1822.68,-32.88"/>
</g>
<!-- random.Random&#45;&gt;random.Random.betavariate -->
<g id="edge7" class="edge">
<title>random.Random&#45;&gt;random.Random.betavariate</title>
<path fill="none" stroke="black" d="M2289.69,-87.03C2222.01,-83.55 2075.22,-76.27 1951.3,-72 1613.18,-60.36 765.22,-76.21 429.3,-36 423.28,-35.28 417.04,-34.31 410.83,-33.19"/>
<polygon fill="black" stroke="black" points="411.71,-29.8 401.23,-31.34 410.38,-36.67 411.71,-29.8"/>
</g>
<!-- random.Random&#45;&gt;random.Random.binomialvariate -->
<g id="edge8" class="edge">
<title>random.Random&#45;&gt;random.Random.binomialvariate</title>
<path fill="none" stroke="black" d="M2289.73,-87.19C2123.4,-79.14 1457.37,-46.52 1364.3,-36 1356.53,-35.12 1348.44,-34.03 1340.38,-32.82"/>
<polygon fill="black" stroke="black" points="1340.97,-29.37 1330.55,-31.29 1339.89,-36.29 1340.97,-29.37"/>
</g>
<!-- random.Random&#45;&gt;random.Random.choice -->
<g id="edge9" class="edge">
<title>random.Random&#45;&gt;random.Random.choice</title>
<path fill="none" stroke="black" d="M2289.57,-86.4C2217.62,-80.92 2056.1,-66.14 1923.3,-36 1920.32,-35.32 1917.27,-34.55 1914.21,-33.71"/>
<polygon fill="black" stroke="black" points="1915.25,-30.37 1904.67,-30.89 1913.27,-37.08 1915.25,-30.37"/>
</g>
<!-- random.Random&#45;&gt;random.Random.choices -->
<g id="edge10" class="edge">
<title>random.Random&#45;&gt;random.Random.choices</title>
<path fill="none" stroke="black" d="M2289.69,-87.05C2222.01,-83.61 2075.21,-76.38 1951.3,-72 1638.51,-60.93 852.41,-85.16 543.3,-36 539.51,-35.4 535.63,-34.61 531.75,-33.71"/>
<polygon fill="black" stroke="black" points="532.95,-30.41 522.4,-31.29 531.2,-37.18 532.95,-30.41"/>
</g>
<!-- random.Random&#45;&gt;random.Random.expovariate -->
<g id="edge11" class="edge">
<title>random.Random&#45;&gt;random.Random.expovariate</title>
<path fill="none" stroke="black" d="M2289.82,-87.26C2152.04,-80.76 1673.67,-57.15 1522.3,-36 1516.4,-35.17 1510.27,-34.16 1504.17,-33.03"/>
<polygon fill="black" stroke="black" points="1505.22,-29.67 1494.74,-31.19 1503.89,-36.54 1505.22,-29.67"/>
</g>
<!-- random.Random&#45;&gt;random.Random.gammavariate -->
<g id="edge12" class="edge">
<title>random.Random&#45;&gt;random.Random.gammavariate</title>
<path fill="none" stroke="black" d="M2289.69,-86.99C2222.01,-83.44 2075.23,-76.06 1951.3,-72 1556.76,-59.08 568.02,-76 175.3,-36 167.92,-35.25 160.24,-34.22 152.61,-33.05"/>
<polygon fill="black" stroke="black" points="153.43,-29.63 142.99,-31.47 152.29,-36.54 153.43,-29.63"/>
</g>
<!-- random.Random&#45;&gt;random.Random.gauss -->
<g id="edge13" class="edge">
<title>random.Random&#45;&gt;random.Random.gauss</title>
<path fill="none" stroke="black" d="M2289.69,-87C2222.01,-83.48 2075.22,-76.13 1951.3,-72 1764.92,-65.79 456.85,-68.96 273.3,-36 270.33,-35.47 267.3,-34.78 264.27,-33.99"/>
<polygon fill="black" stroke="black" points="265.47,-30.7 254.89,-31.21 263.48,-37.41 265.47,-30.7"/>
</g>
<!-- random.Random&#45;&gt;getrandbits -->
<g id="edge14" class="edge">
<title>random.Random&#45;&gt;getrandbits</title>
<path fill="none" stroke="black" d="M2364.87,-86.91C2424.22,-83.61 2543.29,-77.08 2644.3,-72 2984.25,-54.89 3071.83,-80.4 3409.3,-36 3414.99,-35.25 3420.89,-34.3 3426.77,-33.23"/>
<polygon fill="black" stroke="black" points="3427.37,-36.68 3436.52,-31.34 3426.04,-29.81 3427.37,-36.68"/>
</g>
<!-- random.Random&#45;&gt;random.Random.getstate -->
<g id="edge15" class="edge">
<title>random.Random&#45;&gt;random.Random.getstate</title>
<path fill="none" stroke="black" d="M2364.87,-87.11C2429.65,-83.88 2566.57,-77.13 2682.3,-72 3075.13,-54.6 3177.88,-97.19 3566.3,-36 3570.34,-35.36 3574.49,-34.55 3578.64,-33.63"/>
<polygon fill="black" stroke="black" points="3579.17,-37.11 3588.06,-31.34 3577.51,-30.31 3579.17,-37.11"/>
</g>
<!-- random.Random&#45;&gt;random.Random.lognormvariate -->
<g id="edge16" class="edge">
<title>random.Random&#45;&gt;random.Random.lognormvariate</title>
<path fill="none" stroke="black" d="M2289.7,-86.85C2193.93,-81.13 1933.14,-64.05 1717.3,-36 1709.82,-35.03 1702.04,-33.89 1694.28,-32.68"/>
<polygon fill="black" stroke="black" points="1694.89,-29.23 1684.46,-31.09 1693.78,-36.14 1694.89,-29.23"/>
</g>
<!-- random.Random&#45;&gt;random.Random.normalvariate -->
<g id="edge17" class="edge">
<title>random.Random&#45;&gt;random.Random.normalvariate</title>
<path fill="none" stroke="black" d="M2289.86,-80.63C2238.42,-69.12 2145.06,-48.24 2081.4,-34.01"/>
<polygon fill="black" stroke="black" points="2082.27,-30.61 2071.75,-31.85 2080.74,-37.45 2082.27,-30.61"/>
</g>
<!-- random.Random&#45;&gt;random.Random.paretovariate -->
<g id="edge18" class="edge">
<title>random.Random&#45;&gt;random.Random.paretovariate</title>
<path fill="none" stroke="black" d="M2293.83,-71.52C2275.57,-61.97 2252.82,-50.09 2233.58,-40.04"/>
<polygon fill="black" stroke="black" points="2235.42,-37.06 2224.94,-35.53 2232.18,-43.26 2235.42,-37.06"/>
</g>
<!-- random.Random&#45;&gt;random.Random.randbytes -->
<g id="edge19" class="edge">
<title>random.Random&#45;&gt;random.Random.randbytes</title>
<path fill="none" stroke="black" d="M2364.96,-87.29C2434.94,-84.14 2589.8,-77.25 2720.3,-72 3150.92,-54.69 3262.32,-94.46 3689.3,-36 3694.52,-35.29 3699.92,-34.35 3705.29,-33.3"/>
<polygon fill="black" stroke="black" points="3705.71,-36.79 3714.76,-31.29 3704.26,-29.94 3705.71,-36.79"/>
</g>
<!-- random.Random&#45;&gt;random.Random.randint -->
<g id="edge20" class="edge">
<title>random.Random&#45;&gt;random.Random.randint</title>
<path fill="none" stroke="black" d="M2330.02,-71.7C2331.18,-64.32 2332.56,-55.52 2333.86,-47.25"/>
<polygon fill="black" stroke="black" points="2337.28,-48.02 2335.38,-37.6 2330.37,-46.93 2337.28,-48.02"/>
</g>
<!-- random.Random&#45;&gt;random.Random.randrange -->
<g id="edge22" class="edge">
<title>random.Random&#45;&gt;random.Random.randrange</title>
<path fill="none" stroke="black" d="M2364.97,-84.95C2398.4,-81.4 2448.58,-76.17 2492.3,-72 2674.84,-54.6 2722.27,-65.14 2903.3,-36 2908.29,-35.2 2913.44,-34.24 2918.59,-33.2"/>
<polygon fill="black" stroke="black" points="2919.27,-36.63 2928.31,-31.11 2917.8,-29.78 2919.27,-36.63"/>
</g>
<!-- random.Random&#45;&gt;random.Random.sample -->
<g id="edge23" class="edge">
<title>random.Random&#45;&gt;random.Random.sample</title>
<path fill="none" stroke="black" d="M2364.7,-85.71C2405.42,-82.16 2472.47,-76.43 2530.3,-72 2759.96,-54.39 2820.78,-77.72 3047.3,-36 3050.85,-35.35 3054.49,-34.55 3058.13,-33.66"/>
<polygon fill="black" stroke="black" points="3058.73,-37.12 3067.49,-31.15 3056.92,-30.36 3058.73,-37.12"/>
</g>
<!-- random.Random&#45;&gt;random.Random.seed -->
<g id="edge24" class="edge">
<title>random.Random&#45;&gt;random.Random.seed</title>
<path fill="none" stroke="black" d="M2364.77,-87.45C2439.57,-84.37 2612.75,-77.31 2758.3,-72 2996.72,-63.3 3597.72,-84.57 3831.3,-36 3833.63,-35.51 3836,-34.91 3838.37,-34.23"/>
<polygon fill="black" stroke="black" points="3839.49,-37.55 3847.84,-31.04 3837.25,-30.91 3839.49,-37.55"/>
</g>
<!-- random.Random&#45;&gt;random.Random.setstate -->
<g id="edge25" class="edge">
<title>random.Random&#45;&gt;random.Random.setstate</title>
<path fill="none" stroke="black" d="M2364.99,-87.58C2444.63,-84.59 2635.88,-77.48 2796.3,-72 3045.39,-63.49 3670.93,-73.73 3917.3,-36 3921.58,-35.34 3925.99,-34.49 3930.38,-33.51"/>
<polygon fill="black" stroke="black" points="3930.84,-37 3939.72,-31.22 3929.17,-30.2 3930.84,-37"/>
</g>
<!-- random.Random&#45;&gt;random.Random.shuffle -->
<g id="edge26" class="edge">
<title>random.Random&#45;&gt;random.Random.shuffle</title>
<path fill="none" stroke="black" d="M2364.86,-86.24C2412.27,-82.78 2496.31,-76.73 2568.3,-72 2830.89,-54.74 2900.54,-83.87 3159.3,-36 3162.67,-35.38 3166.13,-34.61 3169.58,-33.74"/>
<polygon fill="black" stroke="black" points="3170.33,-37.17 3179.04,-31.13 3168.47,-30.42 3170.33,-37.17"/>
</g>
<!-- random.Random&#45;&gt;random.Random.triangular -->
<g id="edge27" class="edge">
<title>random.Random&#45;&gt;random.Random.triangular</title>
<path fill="none" stroke="black" d="M2364.75,-86.64C2418.3,-83.29 2519.82,-76.99 2606.3,-72 2900.03,-55.05 2976.16,-78.43 3267.3,-36 3272.3,-35.27 3277.47,-34.36 3282.63,-33.33"/>
<polygon fill="black" stroke="black" points="3283.32,-36.76 3292.37,-31.26 3281.86,-29.92 3283.32,-36.76"/>
</g>
<!-- random.Random&#45;&gt;random.Random.uniform -->
<g id="edge28" class="edge">
<title>random.Random&#45;&gt;random.Random.uniform</title>
<path fill="none" stroke="black" d="M2359.27,-71.52C2377.26,-61.68 2399.81,-49.35 2418.53,-39.11"/>
<polygon fill="black" stroke="black" points="2420.06,-42.26 2427.16,-34.39 2416.71,-36.12 2420.06,-42.26"/>
</g>
<!-- random.Random&#45;&gt;random.Random.vonmisesvariate -->
<g id="edge29" class="edge">
<title>random.Random&#45;&gt;random.Random.vonmisesvariate</title>
<path fill="none" stroke="black" d="M2364.92,-79.92C2411.54,-68.67 2491.86,-49.28 2549.38,-35.4"/>
<polygon fill="black" stroke="black" points="2550.19,-38.8 2559.09,-33.05 2548.54,-32 2550.19,-38.8"/>
</g>
<!-- random.Random&#45;&gt;random.Random.weibullvariate -->
<g id="edge30" class="edge">
<title>random.Random&#45;&gt;random.Random.weibullvariate</title>
<path fill="none" stroke="black" d="M2365.01,-83.95C2459.83,-71.25 2701.88,-38.79 2719.3,-36 2726.04,-34.92 2733.04,-33.74 2740.04,-32.52"/>
<polygon fill="black" stroke="black" points="2740.27,-36.03 2749.51,-30.84 2739.05,-29.14 2740.27,-36.03"/>
</g>
<!-- random.SystemRandom&#45;&gt;VERSION -->
<g id="edge33" class="edge">
<title>random.SystemRandom&#45;&gt;VERSION</title>
<path fill="none" stroke="black" d="M1850.83,-71.52C1836.73,-62.55 1819.39,-51.51 1804.25,-41.87"/>
<polygon fill="black" stroke="black" points="1806.26,-39.01 1795.94,-36.59 1802.5,-44.91 1806.26,-39.01"/>
</g>
<!-- random.SystemRandom&#45;&gt;random.Random.betavariate -->
<g id="edge34" class="edge">
<title>random.SystemRandom&#45;&gt;random.Random.betavariate</title>
<path fill="none" stroke="black" d="M1813.93,-82.33C1776.69,-78.72 1728.89,-74.49 1686.3,-72 1128.36,-39.34 984.07,-103.8 429.3,-36 423.28,-35.26 417.04,-34.28 410.83,-33.16"/>
<polygon fill="black" stroke="black" points="411.71,-29.77 401.23,-31.31 410.38,-36.64 411.71,-29.77"/>
</g>
<!-- random.SystemRandom&#45;&gt;random.Random.binomialvariate -->
<g id="edge35" class="edge">
<title>random.SystemRandom&#45;&gt;random.Random.binomialvariate</title>
<path fill="none" stroke="black" d="M1813.96,-78.92C1797.17,-76.47 1779.08,-73.99 1762.3,-72 1585.92,-51.11 1540.41,-59.05 1364.3,-36 1356.81,-35.02 1349.01,-33.88 1341.24,-32.67"/>
<polygon fill="black" stroke="black" points="1341.81,-29.22 1331.39,-31.1 1340.71,-36.13 1341.81,-29.22"/>
</g>
<!-- random.SystemRandom&#45;&gt;random.Random.choice -->
<g id="edge36" class="edge">
<title>random.SystemRandom&#45;&gt;random.Random.choice</title>
<path fill="none" stroke="black" d="M1876.57,-71.7C1875.84,-64.41 1874.97,-55.73 1874.15,-47.54"/>
<polygon fill="black" stroke="black" points="1877.64,-47.21 1873.16,-37.61 1870.67,-47.91 1877.64,-47.21"/>
</g>
<!-- random.SystemRandom&#45;&gt;random.Random.choices -->
<g id="edge37" class="edge">
<title>random.SystemRandom&#45;&gt;random.Random.choices</title>
<path fill="none" stroke="black" d="M1813.97,-80.74C1786.4,-77.51 1753.82,-74.08 1724.3,-72 1462.38,-53.58 802.51,-77.87 543.3,-36 539.52,-35.39 535.63,-34.6 531.75,-33.69"/>
<polygon fill="black" stroke="black" points="532.96,-30.39 522.4,-31.26 531.2,-37.16 532.96,-30.39"/>
</g>
<!-- random.SystemRandom&#45;&gt;random.Random.expovariate -->
<g id="edge38" class="edge">
<title>random.SystemRandom&#45;&gt;random.Random.expovariate</title>
<path fill="none" stroke="black" d="M1814.11,-74.55C1809.45,-73.64 1804.81,-72.78 1800.3,-72 1677.55,-50.72 1645.08,-57.12 1522.3,-36 1516.82,-35.06 1511.15,-34 1505.47,-32.89"/>
<polygon fill="black" stroke="black" points="1506.58,-29.54 1496.08,-30.99 1505.19,-36.4 1506.58,-29.54"/>
</g>
<!-- random.SystemRandom&#45;&gt;random.Random.gammavariate -->
<g id="edge39" class="edge">
<title>random.SystemRandom&#45;&gt;random.Random.gammavariate</title>
<path fill="none" stroke="black" d="M1814.17,-84.24C1759.9,-80.38 1680.05,-75.09 1610.3,-72 972.95,-43.8 809.84,-102.17 175.3,-36 167.92,-35.23 160.24,-34.19 152.61,-33.01"/>
<polygon fill="black" stroke="black" points="153.43,-29.6 143,-31.43 152.3,-36.51 153.43,-29.6"/>
</g>
<!-- random.SystemRandom&#45;&gt;random.Random.gauss -->
<g id="edge40" class="edge">
<title>random.SystemRandom&#45;&gt;random.Random.gauss</title>
<path fill="none" stroke="black" d="M1814.4,-83.46C1768.28,-79.66 1704.49,-74.81 1648.3,-72 1343.02,-56.73 574.02,-90.74 273.3,-36 270.33,-35.46 267.3,-34.77 264.27,-33.98"/>
<polygon fill="black" stroke="black" points="265.48,-30.68 254.9,-31.18 263.48,-37.39 265.48,-30.68"/>
</g>
<!-- random.SystemRandom&#45;&gt;random.Random.lognormvariate -->
<g id="edge43" class="edge">
<title>random.SystemRandom&#45;&gt;random.Random.lognormvariate</title>
<path fill="none" stroke="black" d="M1813.95,-71.61C1773.55,-60.69 1721.71,-46.68 1681.69,-35.86"/>
<polygon fill="black" stroke="black" points="1682.77,-32.53 1672.2,-33.3 1680.94,-39.28 1682.77,-32.53"/>
</g>
<!-- random.SystemRandom&#45;&gt;random.Random.normalvariate -->
<g id="edge44" class="edge">
<title>random.SystemRandom&#45;&gt;random.Random.normalvariate</title>
<path fill="none" stroke="black" d="M1912.27,-71.52C1930.68,-62.04 1953.56,-50.26 1973,-40.26"/>
<polygon fill="black" stroke="black" points="1974.46,-43.44 1981.75,-35.76 1971.25,-37.22 1974.46,-43.44"/>
</g>
<!-- random.SystemRandom&#45;&gt;random.Random.paretovariate -->
<g id="edge45" class="edge">
<title>random.SystemRandom&#45;&gt;random.Random.paretovariate</title>
<path fill="none" stroke="black" d="M1942.43,-74.75C1996.28,-62.78 2072.93,-45.75 2127.3,-33.67"/>
<polygon fill="black" stroke="black" points="2127.73,-37.16 2136.73,-31.57 2126.21,-30.32 2127.73,-37.16"/>
</g>
<!-- random.SystemRandom&#45;&gt;random.Random.randint -->
<g id="edge47" class="edge">
<title>random.SystemRandom&#45;&gt;random.Random.randint</title>
<path fill="none" stroke="black" d="M1942.35,-83.75C2022.3,-76.46 2162.94,-61.26 2281.3,-36 2284.84,-35.25 2288.47,-34.38 2292.11,-33.45"/>
<polygon fill="black" stroke="black" points="2292.76,-36.9 2301.49,-30.89 2290.92,-30.14 2292.76,-36.9"/>
</g>
<!-- random.SystemRandom&#45;&gt;random.Random.randrange -->
<g id="edge49" class="edge">
<title>random.SystemRandom&#45;&gt;random.Random.randrange</title>
<path fill="none" stroke="black" d="M1942.55,-86.35C2152.25,-77.62 2808.65,-49.51 2903.3,-36 2908.51,-35.26 2913.9,-34.32 2919.27,-33.26"/>
<polygon fill="black" stroke="black" points="2919.67,-36.75 2928.74,-31.27 2918.23,-29.9 2919.67,-36.75"/>
</g>
<!-- random.SystemRandom&#45;&gt;random.Random.sample -->
<g id="edge50" class="edge">
<title>random.SystemRandom&#45;&gt;random.Random.sample</title>
<path fill="none" stroke="black" d="M1942.37,-86.31C2182.92,-76.19 3019.88,-40.71 3047.3,-36 3050.91,-35.38 3054.6,-34.6 3058.3,-33.71"/>
<polygon fill="black" stroke="black" points="3059.04,-37.14 3067.81,-31.19 3057.25,-30.37 3059.04,-37.14"/>
</g>
<!-- random.SystemRandom&#45;&gt;random.Random.shuffle -->
<g id="edge53" class="edge">
<title>random.SystemRandom&#45;&gt;random.Random.shuffle</title>
<path fill="none" stroke="black" d="M1942.51,-86.27C2022.04,-82.89 2161.66,-76.98 2281.3,-72 2476.41,-63.88 2966.94,-69.61 3159.3,-36 3162.72,-35.4 3166.23,-34.64 3169.74,-33.78"/>
<polygon fill="black" stroke="black" points="3170.63,-37.17 3179.34,-31.15 3168.78,-30.42 3170.63,-37.17"/>
</g>
<!-- random.SystemRandom&#45;&gt;random.Random.triangular -->
<g id="edge54" class="edge">
<title>random.SystemRandom&#45;&gt;random.Random.triangular</title>
<path fill="none" stroke="black" d="M1942.51,-86.18C2022.03,-82.71 2161.65,-76.71 2281.3,-72 2719.48,-54.76 2832.82,-95.35 3267.3,-36 3272.52,-35.29 3277.92,-34.36 3283.29,-33.3"/>
<polygon fill="black" stroke="black" points="3283.71,-36.79 3292.76,-31.29 3282.26,-29.94 3283.71,-36.79"/>
</g>
<!-- random.SystemRandom&#45;&gt;random.Random.uniform -->
<g id="edge55" class="edge">
<title>random.SystemRandom&#45;&gt;random.Random.uniform</title>
<path fill="none" stroke="black" d="M1942.49,-86.01C2040.75,-80.64 2234.02,-66.87 2395.3,-36 2399.14,-35.27 2403.09,-34.4 2407.04,-33.46"/>
<polygon fill="black" stroke="black" points="2407.81,-36.87 2416.63,-31 2406.07,-30.09 2407.81,-36.87"/>
</g>
<!-- random.SystemRandom&#45;&gt;random.Random.vonmisesvariate -->
<g id="edge56" class="edge">
<title>random.SystemRandom&#45;&gt;random.Random.vonmisesvariate</title>
<path fill="none" stroke="black" d="M1942.22,-85.42C2057.19,-78.61 2306.35,-62.06 2515.3,-36 2523.05,-35.03 2531.11,-33.9 2539.15,-32.7"/>
<polygon fill="black" stroke="black" points="2539.64,-36.16 2548.98,-31.18 2538.56,-29.25 2539.64,-36.16"/>
</g>
<!-- random.SystemRandom&#45;&gt;random.Random.weibullvariate -->
<g id="edge57" class="edge">
<title>random.SystemRandom&#45;&gt;random.Random.weibullvariate</title>
<path fill="none" stroke="black" d="M1942.42,-85.96C2111.91,-77.75 2569.02,-54.55 2719.3,-36 2726.47,-35.11 2733.93,-34.02 2741.36,-32.82"/>
<polygon fill="black" stroke="black" points="2741.8,-36.3 2751.08,-31.19 2740.63,-29.4 2741.8,-36.3"/>
</g>
<!-- random.SystemRandom.getrandbits -->
<g id="node33" class="node">
<title>random.SystemRandom.getrandbits</title>
<ellipse fill="lightgreen" stroke="black" cx="826.3" cy="-18" rx="69.62" ry="18"/>
<text xml:space="preserve" text-anchor="middle" x="826.3" y="-13.32" font-family="Times,serif" font-size="14.00">getrandbits</text>
</g>
<!-- random.SystemRandom&#45;&gt;random.SystemRandom.getrandbits -->
<g id="edge41" class="edge">
<title>random.SystemRandom&#45;&gt;random.SystemRandom.getrandbits</title>
<path fill="none" stroke="black" d="M1813.95,-80.94C1786.38,-77.73 1753.8,-74.27 1724.3,-72 1360.58,-43.97 1266.05,-83.01 904.3,-36 898.61,-35.26 892.71,-34.31 886.83,-33.25"/>
<polygon fill="black" stroke="black" points="887.56,-29.83 877.08,-31.36 886.23,-36.7 887.56,-29.83"/>
</g>
<!-- random.SystemRandom._notimplemented -->
<g id="node34" class="node">
<title>random.SystemRandom._notimplemented</title>
<ellipse fill="lightgreen" stroke="black" cx="965.3" cy="-18" rx="51.73" ry="18"/>
<text xml:space="preserve" text-anchor="middle" x="965.3" y="-13.32" font-family="Times,serif" font-size="14.00">setstate</text>
</g>
<!-- random.SystemRandom&#45;&gt;random.SystemRandom._notimplemented -->
<g id="edge42" class="edge">
<title>random.SystemRandom&#45;&gt;random.SystemRandom._notimplemented</title>
<path fill="none" stroke="black" d="M1814.01,-81.99C1783.92,-78.57 1747.74,-74.62 1715.3,-72 1405.23,-46.92 1323.22,-86.72 1016.3,-36 1014.1,-35.64 1011.86,-35.22 1009.61,-34.76"/>
<polygon fill="black" stroke="black" points="1010.41,-31.36 999.88,-32.53 1008.84,-38.18 1010.41,-31.36"/>
</g>
<!-- random.SystemRandom&#45;&gt;random.SystemRandom._notimplemented -->
<g id="edge52" class="edge">
<title>random.SystemRandom&#45;&gt;random.SystemRandom._notimplemented</title>
<path fill="none" stroke="black" d="M1814.01,-80.08C1788.89,-77.18 1759.84,-74.15 1733.3,-72 1423.23,-46.92 1341.22,-86.72 1034.3,-36 1028.7,-35.07 1022.88,-33.82 1017.09,-32.4"/>
<polygon fill="black" stroke="black" points="1018.07,-29.04 1007.51,-29.91 1016.3,-35.81 1018.07,-29.04"/>
</g>
<!-- random.SystemRandom.randbytes -->
<g id="node35" class="node">
<title>random.SystemRandom.randbytes</title>
<ellipse fill="lightgreen" stroke="black" cx="1096.3" cy="-18" rx="61.73" ry="18"/>
<text xml:space="preserve" text-anchor="middle" x="1096.3" y="-13.32" font-family="Times,serif" font-size="14.00">randbytes</text>
</g>
<!-- random.SystemRandom&#45;&gt;random.SystemRandom.randbytes -->
<g id="edge46" class="edge">
<title>random.SystemRandom&#45;&gt;random.SystemRandom.randbytes</title>
<path fill="none" stroke="black" d="M1813.93,-81.23C1786.36,-78.08 1753.78,-74.58 1724.3,-72 1476.73,-50.36 1411.98,-73.47 1166.3,-36 1161.44,-35.26 1156.42,-34.34 1151.41,-33.33"/>
<polygon fill="black" stroke="black" points="1152.5,-29.98 1141.99,-31.29 1151.02,-36.82 1152.5,-29.98"/>
</g>
<!-- random.SystemRandom.random -->
<g id="node36" class="node">
<title>random.SystemRandom.random</title>
<ellipse fill="lightgreen" stroke="black" cx="602.3" cy="-18" rx="49.63" ry="18"/>
<text xml:space="preserve" text-anchor="middle" x="602.3" y="-13.32" font-family="Times,serif" font-size="14.00">random</text>
</g>
<!-- random.SystemRandom&#45;&gt;random.SystemRandom.random -->
<g id="edge48" class="edge">
<title>random.SystemRandom&#45;&gt;random.SystemRandom.random</title>
<path fill="none" stroke="black" d="M1813.96,-80.79C1786.4,-77.56 1753.81,-74.13 1724.3,-72 1252.81,-38.04 1128.19,-110 661.3,-36 657.27,-35.36 653.13,-34.53 649,-33.59"/>
<polygon fill="black" stroke="black" points="650.2,-30.28 639.64,-31.23 648.49,-37.07 650.2,-30.28"/>
</g>
<!-- random.SystemRandom.seed -->
<g id="node37" class="node">
<title>random.SystemRandom.seed</title>
<ellipse fill="lightgreen" stroke="black" cx="704.3" cy="-18" rx="34.37" ry="18"/>
<text xml:space="preserve" text-anchor="middle" x="704.3" y="-13.32" font-family="Times,serif" font-size="14.00">seed</text>
</g>
<!-- random.SystemRandom&#45;&gt;random.SystemRandom.seed -->
<g id="edge51" class="edge">
<title>random.SystemRandom&#45;&gt;random.SystemRandom.seed</title>
<path fill="none" stroke="black" d="M1813.96,-80.84C1786.39,-77.61 1753.81,-74.17 1724.3,-72 1507.63,-56.07 959.94,-80.58 747.3,-36 744.97,-35.51 742.6,-34.91 740.23,-34.22"/>
<polygon fill="black" stroke="black" points="741.35,-30.91 730.76,-31.02 739.11,-37.54 741.35,-30.91"/>
</g>
</g>
</svg>
